<mxfile host="app.diagrams.net" agent="Mozilla/5.0 (Windows NT 10.0; Win64; x64) AppleWebKit/537.36 (KHTML, like Gecko) Chrome/127.0.0.0 Safari/537.36" version="24.7.7">
  <diagram name="第 1 页" id="DzYzEIplDwv3qs8_3fNS">
    <mxGraphModel dx="798" dy="476" grid="0" gridSize="10" guides="1" tooltips="1" connect="1" arrows="1" fold="1" page="1" pageScale="1" pageWidth="827" pageHeight="1169" math="0" shadow="0">
      <root>
        <mxCell id="0" />
        <mxCell id="1" parent="0" />
        <mxCell id="Llsa7Mo4gnioszqHE1k1-6" value="" style="shape=image;verticalLabelPosition=bottom;labelBackgroundColor=default;verticalAlign=top;aspect=fixed;imageAspect=0;image=data:image/png,iVBORw0KGgoAAAANSUhEUgAAAIAAAACACAYAAADDPmHLAAAAAXNSR0IArs4c6QAAD0NJREFUeF7tnQXw7UYVxr/iLsUppRQfirsUd6e4u7vD4FbcvUhxl+JuheI+uJahOEUKxTW/shny8rKS3ZPczbs5M5n7f+9m7ex3d88e29200lZzYLetHv06eK0A2HIQrABYAbDlHNjy4a8rwAqALefAlg9/W1eAE0s6maSTu/k/XNJvJB2xbXjY1QDAxO4p6fTus/s3k91O+jE9E/0PSS0Y+DxM0o/dZ/fvXQYoSwfAOSVdSNKlJF1G0hlm+gX/qGnvY5I+Lunzkr4+U7vmzSwNAHtIuo6kfSVddMYJjzEeQHxG0iGS3ibpp7ECtXy/FADs5yaezxPWwjxPP/4o6SAHBD6rppoBcD5JN5DEpJ+9ai76O/dtB4Y3SfpyjWOoFQAPkPQISSeokWkZfTpS0v0kvSij7KRFagTAAZLuWDjqn0s61D0/7PzNRPxJEp/t3zR1fAc2ANf+vbcknjO6T/4+TWG/biiJ1aAaqg0Au7vz+BgGcX5HAPts5/MPYyoY8e6JJF3ECaDtJ0fLMcT7vx1TYMp3awMATGUyY8SZ/I2S3iLpc5L+FSsw0fdHl3RhSdeTxK8bvUOMOL0A1iqoNgBwlv9ogDMfbpQ8B0p6bSH3/uMpf1l3vs+t/qaN4ui2ki4fqKC0jdy+DZZbEgAs+zoVALpMnqONYjBYMrW4M06b51sBLPs6x+TM0UYxzy2ZWtyZFQAWLBxXxwqAHflluT+vK8A4LB71dkgIzAWrbyJSu2fdriXIUsfgfS93cMUNeypYATAVZz31rgCIMzyXR+sWEOftTm+sK0AG00qK5KK7pM1Q2RUAU3F23QKyOZv7I1m3gAyWT7ECUGeffMomJPQ+4fqVQysAMrg2BQCGujHH5MzRRgaLdyySu7wVNzzjMXAFQGC2VgDsyBxLJc26AmQsE+sWkMG0kiLbugKU8Cy17LoCpHKq895cK0BG10YXWQEwmmXTGIMyumFSZAVABhutVoCTSjqVpFO6z9DfdPOX7vlV5O/fjRjTCoARzGpfzQEAkULECF7cxQgSJ3iSjLZTivzexQMSE/gpFxNIJNCmjpopfQ6+s0Qh8KyNb/0+vUk/XjEn8ir4swNEC4ZvSPquq2pdATJ4GloBnt+Z9GNk1D1HkX92Voa7ehq01DUUj2lJK0DxYCupYAVAYCJicQGVzGFRN1YABNh3b0nPKGLv/wv/VRJx++3zMxcX2MYG8skDEQ/YxgS2f5/W5R8g6QTPcYz6dZ9GSH2mUV3F1dS2BdxM0qszRoV0jtn2YBdaxqT/IqOeUJFTOyAQ2nVp58Cac9q4ReYYjYfzv+pqA8BZOlJ0aMDEAn7ISeCfaEKxeDZBl5TEw9HzCpKIFYwRuQ6+E3tpru9rAwDj9h2f/tIEYr6nOe9/wD38ymsitokruedqko7r6VxVPK+qM45h5Ndh/+3TIyU9pqYZD/SF5BaPHvj+1047Wc0wagQA4d5k/uoTsgH75xLoVZJuPtDRr0gi9U01VCMAnidpSIlS3a8nMIvYFE4x8D3ZQcgjUA3VCADOyR/xcAjpGz18zYRAyGlkiNYUMYkz5/sFPa7JBvLwxDo29dpjJT3M0ziZTKdKX5M13hpXAAbyQkl3GhjRFzzyQdbgJypE5tALLmH5p4+1AuD6gWxat2oyd71yoskrrfaWTUaxV3gqIfPZi0sbsC5fKwBw6MC0OpSWDY3fUACHNW9y6iPgZCgQhbrOJImUdVVRrQCASez3D/Vwi6xcb62Kk9J1XdayoW6RIHJoS9v4EGoGAAkav9QYhxCc+vQuSdfcOPd27MA7JV3D0ydkgi9W1t+julMzAOjf05tLHLCeDRHpZJ9aCVOR+pH+F/XrXwIA8PVjFRi64AHbwOUSE0tOiZOrN1I/K5KPqv31LwEA9NF3JOQ7LIJXnHJ2I3UjpGKcAqiL+/UvBQBc/4JmECl6iDC6PGpDICBdLSnth4hbRLAOkri6WqpdBmgZRwrW1wS4iCyATDAnhSaffrA1YL6umpYCAJiIV/BdAtxkqwh9bzkRsclHKNzfssGp6loSALj1i63gXAFmsErcXRIuYlMQTh9PDiz7tEkGczSZi6AlAQCGcmHUmyOuV9jckQu4vMmSbt14K+GUErqZjH3/2jVq/HyMWBoA2r2VdPFc3hAiPG8BQulqwIQz8QAgRNwBgKxSnbo31OklAoDxYAtguY9d4cJqwJLMnt2GbKWuCpeQdCP3EGQaIu4xwAPI2hM5ta/Z7y0VAAyY20VwEztz4uiZpJc22wig4DbQNiagLY6L917OZYuJv0pivaiAmfyq7PyJfa9eFRwbx7klPdv56cfe7X/PXUMAgR/B6Tr3CI+pB9PvHRqjFVfOLpKWvAK0DD+a8xb2WQ6nmBiUO3j+vmSKyuesc+kAIFoH+zuetgRmsCJMHTmMDYKLrfBNxGeB55tzTpplW0sEAKFZTPq1JF3MkhkFdSFgYhDiCV16VdDENEWXAoB2wq+6gGtkuSIWILyj8Q/Ah7FqqhkAWNhQqvBL526+JdIbGiMWQSLvrrXzNQKA4xeBIbV5/JTMIX6MHFk5hlZFNQGAKFsm/sZGHCKC+FvNMY1YQ87o3eeI3r8JSCXZFA/3B/OJ7WEP9xCryN/HLuwbwiORTzkh8IVNDxevAQDnae7Svae7cTN3kAhh+Nyx/3JlO8/3cisLlCO0m+2Ih/jF3K0JRxaAYG2vGD3kTQMAT1nMpmMvYEab93YnZDHxXNe6CfMrWkgE0we5FWLsBDzHgX9sObP3NwUAdPhM2G1GjIQUL0w6z/s75QARvgCYaZmIuQmvH/qDUygBrAiuobuD+/17rwPB9+fuOO1tAgCYdJn8cyQOuBWgiKzt69v7EUTkEJxi6Q919ZMuSSVXwjP5h7itgXHul3hsZfLZBgHDrDQ3APCfwzKXQrEjFBZBDDzdMcwdf4/zCct4S+ztTPqRnf/DO4gnRYC8c2PhPCCFOVbvzAmA1MnHukYmkJASBdUv3rhI6n26m3Mfs+KRrx7U0F8b6MNTJD2wVwjLJSDwBY50X5/VyXUuAKRM/t+dgeVJkZnb2y2VZwu8R2xhqSNIDEBYIe/heekmzdL/+oHvCHJBViAVXYhmA8EcAGiFpNCA0Z8T989+GqLdnYoVZ40QcbxiKZ6KsEGQH9hHHEOJFUQP0SdWA0AQi2eg/EFTDaCtd2oAoEBBQvYFTtAPTKrY1GOE2ReGoBpOIZbbqVSw75N05UgnXudcxHyvEcuAq1mIOB4jXE5GUwMA3z2WQx89PhAB3C9z4MhjI5m80eqV3h7e7wf5CV6eOCPIAsgEuSBglYmtdoldGX5tSgA8JKKcQYJGG5ZCT2uOgPdNebH3zrMaWYD0s1bExROfbpJAIIekEKcBQtkRWHNBEANRSj+870wFAJZpFDY+wsPWl0mjXwbZoCQ/IOpa0rZYEPoLgD2GyGKKEMytJLkgmCzKaAoA8Otg3yft6xBhEbt9IgeRspG2SwhBLFXpFGoHRxR+/TmUovLFf8BnAf2B83gyz446BQDI3OGTwMmRS0g3at0YkRTSKhcQ20dpFnI0kSURP4A+ZA4GpB/0ZEmFVwjAnAxMyRoAWMjI9Okj3K1TNIFsIfjzW/r3laiJY8GpKZNyqEsSGVJwxUDPj8fU5cwaABhkfFG6zw0oTroMJNEiIEHgsiSObljuxhIZP1Hx4nBaSugnSBYZciMnoulenoZeVmg236laSwCg3SI2bih2Dh096I1duwaTmfyQlq9kEriPgKPpGMLdnIRVVhTT8nExBVvBvgMNcifReZ0nskl/LAGAZA9Ch2jMUYZjEyBA8WNNeAmhnCITaQqhtcMaaXVbCKcIXxbRbn9CGcdQlT84pfMp71gCAK0befL7RAgWmsAxEiyGFkCAm5g1YW3D6pZCCG04m1jQ2InjxMHJo08EpbAKpII42HcrAISEP7RmYxw/uh1+giXaOxWnnKvxTUSda0Eosu4/siKsmshNQ0Rd1FlMVgAICX8pzA4NhPKsBpaXQxLCzbHrb56GMTMjsFmoYXO1keRH/KoLWO13k/9nFSgmKwDgl3f+gd6ggct1nOxWx4kA//qYBW0MQ0I3kMTU2KntoOpG5Z1LoWypbA/kJCgiCwAgrGF7x5W6T2OEv5SBMGmWGcGQtPsmaLYz5JmhCx9S+ti+Y5EeFi9kfu3HGmiYo2KpltTEJ5AjG/bvIWJVwFXbkvAvwNkCp49SQqnC8bRLZPROVVX72sdyebvSzrnyKMSGNIAcZznWFpHFCoD+Gj12nzDH4sDh22dLOs6WgB9BiotVrB2shezTEJrKIU+eWB3d71FfYzK2It8FVMgxvtyJyW1bAAA9+5BEyi9/SC5I7lzCi7iBPzHhvdgrHFM5XiFsjnHp7tdr8qvsVRqyrGJwK3IntwCAL5Urv6SQM0hsUlK/Z0vgqBnLFxSqj1At4vw5duYS4GEFsSZkEd+Zf4xZfbBfFgDANbu/j9IYS5cvg7Y1k9gSODOXWOsI6sgV/Cax1HWYBDiHTNrFgqYFAA5zOXb6k4pJeO7YNxQkIRcsa+BRH27sCGno6aci3z2E2F5CiTOj/bEAgM/nblNXpLAloO4NJXSMMibxBSJ5mHxuKp+SiJr2uc8VzWFRYTdiHwC4SPnfU3IlUDdbAgmkh27vtOoSFjsmvxsFZFV3vx4ypPj8AIrmsKhwBACYhzkKbpKm2hKYDCZ/6uCTlneLBMDkPu2JyGJL4JyPVs2CcPJk8g+3qCyxjkUCgIwaKb5/iTwoeo0tAeGw9PJpTLRM/twpYRcJgE0JgSGklGwJGLaY/J8UQTGv8CIBsE+lCRTZElgNxvj4odVk8sc4teRN9XCpRQLgAu7GL0tGWNWVuiVwikHnjjNpkcq1sOOLBADOFKEI2kKemBRP2RJyvYlNOugqWSQAsNtbHDMtGTlUF7IKjiYhN3Qyf2765k9fJHERj4sKO26yP5q4J00907tg/Qike5aMywIALxjhZVvS17XszhzAJWzIcziZVxYAwCkDg8hK83Og2DvYAgAMG3t6sXvS/PxbdIv86FKzpXgHagUAGuinTFs0dyvvPGHzvpiBUV23BAANkzeHBEq4gg15CY/q3PryDhw42Cmi8L/ACceErAFg0qm1kvk4sAJgPl5X2dIKgCqnZb5OrQCYj9dVtrQCoMppma9TKwDm43WVLa0AqHJa5uvUCoD5eF1lS/8FlZu1n0hi5GwAAAAASUVORK5CYII=;" vertex="1" parent="1">
          <mxGeometry x="293" y="378" width="128" height="128" as="geometry" />
        </mxCell>
        <mxCell id="Llsa7Mo4gnioszqHE1k1-7" value="" style="shape=image;verticalLabelPosition=bottom;labelBackgroundColor=default;verticalAlign=top;aspect=fixed;imageAspect=0;image=data:image/png,iVBORw0KGgoAAAANSUhEUgAAAIAAAACACAYAAADDPmHLAAAAAXNSR0IArs4c6QAAE3RJREFUeF7tXXuYJUV1r+o7O7srIju3T81slo0Bs0SDGoNEwFfMIuGhAiovNYAhJsSNAR8BgwQSH0hAjSKK+EAFFF+AyoouArKgQXEVEEMUk/UTEcZx6tTsLKzKDnv72Ge9w7fcqequ7lvd9+7Mre+7f91Tp06d+nV19anzkGLQFrQG5IKe/WDyYgCABQ6CAQAGAFjgGljg0x/sAAMALHANLPDpD3aAAQAWuAYW+PStOwAAnC+E2K8PdLNheHj43ePj49gHssxLEeYAAACoz2Z6OyL+RZ/JNG/EeQwAAOC9Qog39tvspJTHaq2v7De55oM8nQBYL4T4qz6c2NsQ8a19KNdOL9IAADv9EnY3gQEAutPfTt/bFwA31zhT2yto8AqoaAF8AVDLAgCA6wxSy/gV6biv2Q4A0NfLU71wAwBUr+O+HsELAER0r5Ty3gIz2YCI/1qAfjvp4BVQVGPd03sBoOwwiFjosmkAgLKaLt+vUgAIId6HiG/yFW8AAF9NhaOrGgA3I+JqX3EHAPDVVDi6qgEw2AHCrVUlnKoEwO0zMzMHP/jgg1O+kg92AF9NhaPzBQBbAm8pMOwdiLi2AP3gK6CosgLR+wKgFkvcYAcItKoF2AwAUEBZ85HUCwBEdJmU8lJfBQwPD99dxo2rz3eAxsjIyO5Syt2J6KEkSR7YvHnzJl+d9CudFwBKCl/4tdFPAFBKPT9JkmOklM8VQuwuhBiz6OE3QogH2r/PCCG+iojjJfXVk25VAkAUdeXqNQCUUocS0cFCiCOFEE8quSJriej6KIqu1lpPlORRW7dKASCEuBIRj/WdTa8AAACrieh1UsqjfGX1oLuPiD4URdFFWustHvQ9IVnQAIjj+FlRFL2OiF5dofZ/xEAwxlxU4RilWVcKgH5+BcRx/GYpJcc/1NVulFKu0VpvrGtAn3GqBEDfHgIB4HNCiON8FBSSRkpphBAnaK3XheTbDS8vAMynz0AA+D8hxF4FlLZOSnlrkiRTURRNJUli0p1jKRHFUsomET1RSnlQet55qi9PKeWpWusP+NJXSecFACFE4ae5jNBVHwIBYDq9ot7NQzZ+Qq+YmZlZ53uX0Ww29240GgcR0WuFEH+aN4aU8u+01p/Mo6v6/wUDAADgu4nDsxSafgJ+W0r5QUT8bFnFL1u2bFmj0ThNSvkvQoglOXwORER2hO1Z8wUAb4O8bVV2gNl1113jxYsXX+WITOpqBwKA9wgheEGcTUp5ttb6nFAroZTah4g+KoTIjGskov2MMd8LNW5RPr4A2M63qndXHMcnSCnfL4QYcUygNADSYNf/SHnmhZWdjIgfK6o8H3oAuEEIwWcEV7uHiA4yxrBFsfbWCQA2Z74yR4p127ZtWzM9Pf3zbqXl7XJoaOjDHify0xDxv4qONzY2tmer1fquEEK5+g4PD6sy9xZFZAEABiAD0dqI6FxjzL8V4RmKthMAmYLuOGi3u4FS6iQiulAI8XiPyRyehohf60H3GBIAeLcQ4rQMxde2/QIAA/0fHbJsFkLsj4g/KTrHbunneO1mnMRtY60bHh4+scgTtGLFisdt3br1cl+za3oZc4PWmu3zhdrIyMjTGo3GBiHEUltHKeVZWut3FmLaJTEA8NfFoTY2/DAYY17f5RCFu1vdtuM4fnWR619GNiLygSezxXF8opTyIx6n4+18pJRnaq3/M4+v7X8AuFgIwZ9kcxqf9o0xfMtXawOAfYUQ33cM2uKsLIh4R51CZfntDymlvkZEf+0pEO8GR4+Pj/MVaWdbBACc4IFv2XzaD2dmZlb7foM7AMDXsn/gAMBRxpgv+ggSmgYA+AE42SHXOcaYs0OPmcUvN3ADAF4ihPiKr1BEdIIx5tOz9ADwCiHEp4QQQz48QhhIAIAjjF3f159BxL/xkaUKmpxd4AeIuE8V47p45gKAO/J7e2Zm5uNCCF7M3Cal/KLW+qg4jq/yfdfzHfqiRYuOn5iY0LkD5BBknbqTJHn21NTUbd2O0U1/AGBDk0uX+9b5GvACwA5P8xFCiGu6mbytr5TyOK31F0LxzTjI3oOIuWbaUHK4+AAAn034jDKnEVGtr4FCAGBp+dt90aJF57ADRbeKklJeJoQ4I7TnjCvTmZTyQ1rrruXudt7Lly9X27Ztm3Q8DN/RWj+n2zF8+xcGwCxjpdTRbVOny3qXJcNWIcRJ3djcXcybzebKKIp+4fh/NSLWme3EqYOMXeo+RPwj3wXslq40AHjgsbGx0Var9TbX55ZDuEuI6K1VmT6bzeazoyj6tmN7XVnVuEUXAgDY9Pz3ln4tRPQ6MBcd07rjhGACAGw+frsQYpWLH+cXSJLk7B2/EEKM3clDKXUMEdnOE79FxMdVMWYZnlkeSVEULZ+cnPxVGb5F+3S1A+w4WHvrZbv7CosQd7VarSM2bdp0X1EBi9IDACe65ISXne2HiPiMovyqoo/j+OVSyqsd/Gv7EggGAJ6IUup6m+GozssOAOB8BLaLowEALGgLCoA4jq+TUh7SOY6U8jyt9Vuqepp25KuUOo6I2Oevsw1eAVUDAAC+JoQ4zDLOu8rkDCoDGKXU84joW7a+RDQ4BHYoJugOAABfFUK8yKL89yDi6WUWtGifsbGxJ7VarZ86+g0+AysGAN8Z8N1BZ3svIma6ZBVdaBf9qlWrFk9PTz/s2AHeaYw5K9RYZfkAwK5CiAdt/dNX6M5hCLIJDwBsJmZzcWe7ABFrS0MPAOwH8CyLHN9FxAPKLlyofnEcv4zvSxz8Sru/lZEv9CvgS0KIl3YKUrezQxzH72CHD4dCnoyIHBvQs6aUuoiI/skhQG2fgDx+UAAopa4mopd3ToxdrbXWp9Sl8dHR0UOSJLnOscWer7U+oy5ZOsdJ/QHYR4GdQmz2kv9FxKfVKVtQAMRxfKWU8mgLAGq9hGk2m0+IoogdQnaxKHNbevX8nF65Yuc4iNZ2WJ7VS1AAAMDnhRC2cPAPI+KaOpGdEwjyBUSsPTYw5+lnF7jDtNbWnasq3YUGgMvR4aOI6PKIrWRuWa+B7e8+Kd+gteZYhNoaALBn1PG2AYnoamPMnN2zauFCA+AKIcSrLEJfgoj/UPVkLO/bzDiHKIpWTU5OumwGQcVVSn2AiP45g2lPwsRCA8CK8DSC9hPGmNcE1agHs9HR0ecmSfLfGaS/QMQnerDqikQp9SIiYiOZtbFjjNb6b7sapGTnoABQSl1GRCd2ykJElxpjTiopY1fdAIDd1bN2nzsfeeSRF1aV8SvjevrRefUyPjAoAOI4/mR67z8HyVLKy7XWVaZhcYJk5cqVSx9++OFv5gRpTrS9mW/sCm0dnZVS5xFRZt2EXpxFdhQzNAA+zm7dFiV+GhFPCKncIrzavgo/Sq+J2QTrbGyvICIOD+8qRIvv+jkaWUqZ59t3MSK6DEJFpliaNigAMtyceuqLz9oZHR19RpIkP/DQ1OY0+wdn77jCGHOPB/2jJM1m84AoitjgZTsId7K6FhEz8xUUGbssbWgAuKJePpc+VXlRx2Xn4N0vjuP90m9t9lryalLK24jouiiKbmy1WlONRmNqcnJyqtlsLk2SpDk0NNSMomhPIjqCiJ5XILfgpxBxzlnJS6jARKEB4IrH64nhxaarkZGR3RqNxpd7VSK3M3Iq8HoWZhcUAK5Ljl4ZObK0Ecfx+znEvbDGynf4GRGdbIwJetAsL87ve4YGgNXYIaX8ktZ6ziVRt8KX7a+UWpUkySFSSnbL/rPUozkqy8uz30McUcUPQqvVunl6epqTVfVFCwqAjKfqGkScc01cpwZWrFgBMzMzbIl7oRCC39e9apw2lncBTix9Sa+EmB03NAAukFLakhx8JQ14tDmKVD7/PfbYY8mWLVs4HIx/e1Y+YLEB1vMXhzGG/Sh60oICAADYH9/m+cNot7mKVTppAOA4fF543ub7thHRVVEUXai1tjqzVil4aAC40rGtQ0Sbs2glc0uzgb6qnf07zxDjMz4XvcK2Dx/7Gm7jsxMRLZJSsr/BsnYSqhBRRx9JPy8vnJqaYqNVLS00AN4lhJjj/UtEXzfGWHPjhJwlABzeXvg5sQme42yQUq5ttVo3JUnyy+npaXYqmfHp23ZCYW8f/vFux0aeP/Hp20HzELvQRVHEsRSVp5kPCgCX7btsoqciylNKndLOOlak25SUcn2SJDdJKb8cutoHWx9brRZ/bXCsBGct8W6cx6jRaJw+OTlpDXT1ZpRDGBQAcRyfK6W0RQB9AxGzkiV2NR+fS5eOAT7G17NLly69/v777/9tV4N7dk6zgjyZo6bSQtx8WeabBoZ3gNMRkVPMVdJCA+AcKaUt4eF6RDww9AzaqWvYCcXrE5NvJVut1sU9ThHDybfWEBG7yPlmK6nMpS4oAACAQ8RtWa5uSRMzFNoC88DCxhwi4hy7fAjLaxwuzjdvfZEcgoUdGxvbpdVqMQj4l1ufqKrUdqEB4Mo0+i1E/Mu8VfL9P47jl7J10YP+miiKLp6cnPy6B21PSDhJ9pIlS2Z3BJur+I5ybRkaGnr6xMTEvaGEDQ2Af+faAhbhbkXEINY331IvRHSKMeaDoRRVNR+l1F5cWygnsfR2MaSUe4XK3B4UAEqps4joHZ3KChXvBgA+Wcq2ENHL+u3SxRdAcRy7nGoewwIRg6xdECazkimlzkwNJLb8u13H5PEpOs2tl+egcVeSJC+Zmpq631fh/UiXl128LXMQ41pQAMRxfIaU0pbb93uIuF83ygYAzqfvfEf245VzN/ON43h/KSUfWrOqjrwJEd/XzTihAeAqxXZ7mu49s3JG1iQA4Ka0fP1qFw2Xf+tlvF83C5DXFwA4q+n+LjqOxezmMikoAACAc/Nzjv7OdiciPjNvsrb/AYAPRs6wsvn25Dt0wCVobbWLZw+F+2itffwd57APDQBXgqa7EPHPiwJAKfV6Irog48m/W2v99KJ8dzb60dHRsSRJnHWI2UbQarVeXMbRJDQA3pCWZZvzTiKi/0nTsxe6km2/A7OSOk8i4h/6XtbsbIveKW+z2Tw4iqIse0ap8LugAFBKnUpEtoDLwnHvAOCKM5zVTU9i6XoJpIxXbGmdhAaA60bux4i4t6/y8mLpONSrH9ypfOcTkg4ALufyszaeZXwvgwIgjmMuwW6zvv0EEZ/iqwhXvkHuz5dNWutzfXnNN7r2eeB6l5eTlPIYrTXXX/RqoQGwhlOyW0b+f0T0co5o1xXiNPK2tgERnZ9EXjOeB0RKqdekOQ9dDqWF7l2CAgAAOAmE7e76p4joTCS9w5o02t+9VpsBEZ1kjLl0Hqxh11OI4/jWjNjD1yIiR2nlttAA4DBsW/WwnyFi7pVnRqJnnsg30zq7L8id0QIhiOP4eCkl52OwNfYpPCDNzcjxCJktKAAytqafI+IeWZLwu63Vat2Wlqtz0b0yPUfYcgDnzXHe/g8A30gfDKujjW9dxNAA4Gqgn7BoPDcTR1YdnTp8CndGlLSrtnA5PlvzOngHBUBGwckH0s+2lVlKzqqk1a29e2dcXF+ZMxJ08xfTC7TWnBzD2UIDgKuA83dqZ/tlWlnUeZPXjt5hF2xb/aEg156+Ct3Z6NgVXgix1iH32xHRWbSa+wQFAABwQcZHi0buINSvUs/W5S7lKqUOJSKuq2trb0RE533AzrZgFcgbAQBXcrftsLmeWKEBwEkgODVbZ9OIOOqaPACcL4R4s+3/tP7P3saYH1eguHnD0pWciyeYVyMhKABc1TqklEZrDRkA4M+WOS7SRPQdY0yI8K55s9i2icRx7Hr1Mnmm2Tw0AFwVuzYhYtMh/FPSyqHWJ5yIzjTGlKoePq9XvGNybRdzjmEc7pz3bBlflz6CAmB0dPSoJElsdujN6Xvc6r+fUeSJT7HP1FrfuZAWs+xcAYDPULb4yy2I6MyOFhQAGYUQHkLEJ9gm56qgmYZQ3WuM6bd4/rLrU3m/dii8y/zrLJUTGgBHcpClZba/RsTHOwCwMS0v/8ed/3G+PmNMbTUGKl+higdoZ0CxVl7PSkwVFAAZ36TOkm0AwDH3iy3vrlO11pyvb9A8NaCUwjTjSGx5mN5ijDnPxiY0AF6cpmS91jLQVkSc496cU0W70L22p47mNRkA3C2EeKrlYXIW7AgKAKXUYWniY64d2NkeQcQ5J9S0qAN7Ct9uRaaUz9daZ2X6nteLWWZyAHCDI7RsLSIeWfkOkGHRs1bEzgr1qjOXfxll92OfDHexOxBx38oBkOG5Smlgxy0WAXZPc/LuZRNseHh4l/Hx8d/0o6L7VSYAsKboSRNlOS2xQV8BcRwfxFe3ART0YBrytFsAPguKRZZDzbJly5Zs3Lhx65zzQUgNxXF8oJSSnRS6bU7LYbeM53N/AHiFEILrNs1prldq0B0AADgLyPoASp5GRNvVcADW85dFjv6txqCgAMgyRhRU+/cR0Vb6tSCbhUWepf+hoaHRiYmJOYaioABgdXvGtmeuTKjkBwtr+X8/W5v+pZTHaq2trmPBAcBCtAslHdPOoOmzDuwyzqbijYMn30dd2TSz+ieiX3N2ltQby+apvZ1JJQDofgoDDnVpYACAujTdp+MMANCnC1OXWAMA1KXpPh1nAIA+XZi6xBoAoC5N9+k4AwD06cLUJdYAAHVpuk/H+R0e9Eb5kv8LIQAAAABJRU5ErkJggg==;" vertex="1" parent="1">
          <mxGeometry x="46" y="300" width="128" height="128" as="geometry" />
        </mxCell>
        <mxCell id="Llsa7Mo4gnioszqHE1k1-8" value="" style="shape=image;verticalLabelPosition=bottom;labelBackgroundColor=default;verticalAlign=top;aspect=fixed;imageAspect=0;image=data:image/png,iVBORw0KGgoAAAANSUhEUgAAAIAAAACACAYAAADDPmHLAAAAAXNSR0IArs4c6QAAFtNJREFUeF7t3QW4bk1VB/CF3d2NhS0GdisWmIgtBhZ2JwYWKKjYrZiAYrfYHdgttmIHFna8v/vtfX3ve/fU3jP7nO/cdz3Pee75vjN7cs3Miv9ac4c40y09A3e4pUd/HnycGeAWZ4IzA5wZ4BafgVt8+OcT4MwAt/gM3OLDP58AZwa4NDPwdBHxRhFx94h43Yh4qqlnfx0RfxERfxIRvxgRvx4RPxwRf35pen5bR54jIl49Il40Iu4cEc8ZEc8SEc8w9fPvI+J7I+K7IuI7IsJ/XzhdhhPgeSLikyPibRtn48ci4qsj4mER8U+N3/YqjmnfISLeIiJepbHSr4qIj42IP2r8rmvxi2aAN4iIh0fEU24YlZ30WRHx4Ij4hw31tHxq4T8sIt47Ip6i5cOTshj3rSLiuzfUsenTi2SA+0fER2zq/Y0f/3NEPODATJ9+qPffOtZ7XBVG/cgDo33goa0n6diGE/C+HeurruqiGMDRd7/qXrYV/NNpkb42Iv637dNk6Sc4yBzvcajv4yLiGTvVeVoNxsLAu9JFMMA9IuIRO4zyURHxLhHxqxvbermIcF/faWM9pc8xqyuRoLgb7c0Azx4Rj46IJ91thBGfdmjr4yPiXxvbfJq47dt3a/xuS3HX2PMeZAuazy60NwN8TkS8T8XI/jgifvQw+Y+ZJuSFD6fGi1V8lyryuxHxppMKWVPNK0XEN0XEM9cUTpT5tYOA95sR8fsR8ayHnf2KEfECFfVhug+vKNelyJ4M8GzTguY6/o+TWvVtC4VI3o7Iex7sAW+yYvSPm+7xryl8S7r/1BX1EzxJ866374mIv1uoo+b608/nioi/XdGH5k/2ZACc/aGZHhr4yx90ajunRIwrHx0RH1AquPD3L4yI+yz8f+rc103GqJZqLfznRgStZmnRT+t6nYh4ZKGBj4mIT2rpxNqyezLAbxUEqQ+KiM9sHAiZ4qMi4r0av/uJ6RSZd5nTye59icZ62B9I7iyVLWRxMXCKfu5gMSR8Dqe9GIBZ1L2eIn977g2jxQifeLCqvXNDHdRFpmcq3ndGxDM1fPv5EfEJh5PkLxu+OS5KCGbafvrM9/5Wc6Ks7MJtn+3FAO9+EIS+KNNTx6edvJX4EB4yCV01dbl2nqym4FSG2fZek4Da8Nli0S89MMG9M5WwEH791kZK3+/FAOz1BpQizpNfLnW28u9PHRFfHBFvWVm+thjZwTXVqk6m6n/jiPjWTOMpWaW2v1Xl9mIAi5u6X/9zMqv+T1WP6wux3PEPbDXZ0s3t1N67kVaTk/R5PF+zfrjrSu7FAI7alPHnlw474aXWdb/4lZOFSrZWnycnvPbBU/k7xZbWFSAHcCMv0Va5qKpHezAAn3jOd//QFa7gqsFNhUzw9x28joxJLQR3cNfBuAOax+tnOjV8fYY3cJh8VjVqV4oc07xrI8lx+5MN9nzmajaJ0aCNr4iId8oMnP9h1Olzrdk9GACH5/zdPGxUqpEErPEDEfFElY3897Qzv7+y/NpimP/9Mx+/7EFV/fm1ldd8twcD3G2CQKX6A1RBrx5FLx4RP34EMatt518mlA8ZZRRhfo6qFDEGMQoNoz0YgBPmmzMjGMkALHy/sEEI/JsD89qFo2BbbB/AIClyff7UsNXf6QqAl/uGzCAcgZ89YJDcuT/dcO+nusCTyJOHGXqT3e8USNGrTqdX73av17fHCcAgA/eXog8+HM+f0XmEVM4fPKiAr1BRL2dOyVYAXALxS53tSczXOSiYNrnFh9EeDMCFCwqdIrjANe7X3KSULI/zt6xxDFBg2iViCMpZM0vfL/3duLmfU8Q+MlIG2UULIMj8TGaQdr9ToBdxEZe8ihadb/5bpkb9boEfr9CJ3qfVlxccWJxojFHDaI8T4I4TKiY1CODNt+80Qkc+if/xM/XB3r3jFFNwXIw+bkFyc0I9fK2Ox7KT0QmZImorU/kw2oMBQKkhfVJE12Zx20okfpFDJbdubhfXoJW5aKmWf7a1w5OGkjKDmzOOraG0BwMYQA6ezeS6Be83TxCJn/UuR+wN1M4c8dCRDXLkSqsRMEuLh4ngBZfo9yLi+UsVbP37XgxgMNCuKdraDwu7BPM6bs+OguDJeR3tbuWopaVopRpmyq0PzSPnWr5S3sBvn4I+UxMCLUvfriXePQzl5y4Fc2ptnWvKYSiWOshfPy0IIe7xHAYCgOY913Sq5ZutO6+2rVIYGGjWkir20hHxMpMnz3FowQmVLSie2j72KMdOMDODU+83DozPhrCkykE35zAGHGR8BUNpLwYg5YvkTRGTKIcRs6sF92NnXxVibPqVybGDITh4mMhzfoDXm9zYQ+dgLwYg6bLJn6l+BoBkc0Da+poyJfdigCceGLHbZSIuWSX/cYgzMGfDaQ8GgMSRREH065nqZ4AXUKCKn2Hw8FEMwCjzdhHxNgPxfvVT+f8lATz5+f34ncrHavjkU6IH/86/r6l/1DfiFkQoC5nrmvugNwMwjghresNRM1FRrxA0gZ3Hi23BWz15AjNYFeUDgGukejLb5ky3Fd3bVASK2PiEorWOZ7HhXgxAegfrGjk51KucMckAWQP57keR+EERvykk79wuTGFNJPDafv7VFJJWcnoV69/KAC85LXzJdFrsyEkB4IsfmpwutAd6tFi6XPQQq5r+mPyRxEfPSpej2cNJ+9EnJmrYSAmxepKYRKpkLuoq295aBoCy/ZQp3LrngL5sMsPSmY/pRSpi+9/vEGsn/8AexFT8voWGlqKdXmhyfb9r504yOElkAfncRK0MwF/OPAnJggl6k7ttaWLByuHjUmTgr9y7M5n62PGFsT9fpkzqOnJsrwlrLw2Pw03ugw85REu7IqqohQGYYGH7WOnWko7l3LV/OJl6j+uXPxBmIEcWgoywJ4Gay1WYI5oQNe6Yfvvw/14w8RFhFZSNaXwtiWV461orYi0DkOotAqBlK1FbvnH6nrnX3f4amUoc9wQtZKexqVMrUyQ+/6JsDK4siahSxN1LGJwldllEcwkwZtjZ006LCKSyNk8AbIOTOks1DEC6p9q1kh1JToDPw9kz8cc76lNE0OM8QvCC8+9L5QlBnETH9bf2c0t5CyVyZ04Hu1SXdHizzb80lxxEpxnUCJIEYLC1VrLh4BiTmVRLDGDXt6ZwJcDBuqc8XaVYQVK/a8ZpA48/5wxeGjwLYynnT+uktZbXB0aaFDkBqa/iI/8gowkoh6FShh6MbnO0JMHQJ+AVjqXFLKo5BqhF1s4Dd78TbgR7luhHDnfdq2UKGazw7lxOIabSnGBY6kPPv1MLqYcp+sqI+JICxr8WdUy7kFyiRRbjfZSb6LGnHUwxgGOo5ciRzEBqsxz277htKhswRYpcEaV0cnTrn+25ihvqKiGfVU24AyhN0dLxn+uSq9RJW4sbxAQMdjfQEgPYdcyNNSQLJyGIj7uFStdAqS5CpYijy0Stm+a474xYTM+t2UdoVJ/XMBc35SA8ZQCGilkCL00uwYSQt5bAt9fq7tSo0Ra/1nGR9teGcmMeJ8BaYokFuMnJS3PdNwScnjIAfNtNx8RJr6g2b9bh+C0ljkpNxhesSAu3dmJbv7MbW1PWaUPiy6XkmC3twxjKM+x0zZENTtW+RscMIBVKKR6eTV4mrh65bOH6qHEl9O3xYOjTJOoW8GXLJG4t60gm6bdgFmkHOTtHS584qcQSMtrlSO6ha/6MYwagTrFcpciiA2n2DFVq3TG9jD4EJ+oUXB4SIiZbR48HJ1yLLYYpxhpGm17E4URDyp0EtJJrmUlmBnB32FW5KFmmz1yqlzUDEBBSm87d7oeT2xqmTXtw0p2+9EFFosqdOqJax8UoxH5RewqMwP5REXOCOWFTPx83M4DQLImUUmR35EyerZN0XL5WGPQSCEfHFpKEWcraVMYyJ4ArZisES1/lFCyRDGajMBRyJeZS3UNdP2pmAAV9kCLaASfGCCpBxuc2IXKqvVyJjpbCsX3WIwK4Vs1980L2lC3zXbJNsPA+dGaAXODGaIQq9KuFzakw/O+5ZEq1E1Wy2KlHbOAsG9TWu1Su9DYCeBehsXeCzLkvTziZlVMh7/wT95sZIJe9elQmz7mjkjXTBnKJk3sxADWJFpMjDpQemMYSaIQsQ/ofFf6NATjJ/LtE14TPmQEgVNiqUwTWtFU4StXNd13yHxBa3N9bBUBezVJKuh4ZSwhYgjpKT+OMTAjNnpPLMEYLesjMAKVHDIAacirilqOy5lhWf4+M4kKxBaGmJHRCIB16a4LIWlUQNiLnH9gyr8zlZIwUXcs/NDMAji0Zd4A4ePF6UovpmU9bypStujrhCNOd7k6LLiuXfAVbiBtbDuDaByVHmLVLyTmNj+v5sceGIJm8cinWTZCrwOB6USs+bqv/Ye43uz3v5ZyAQZg2DaFH1o9S7r/TuXtQwe3dOtfgcTKl5Cys8AvS5NxgCWQe5LLMkYliMyidFrWdpm/jxFoiOdPTa93OtfX2KgcoC8LWAp0zphyiqKVvXk6xhinM4VyX2Amg1ZsSIkHXlgIr7BJq0tYUpjjQ6x6t9MBCarXW+nqWbz3R5raXwKOt/XJFA+2WmOkGuePUG+hIrHWzbs3wiVPXPohAUIMgvkzkZLL71xArLNjWWuJ7qHHNM6eTu65f40uAEJkpajN3ClqEiWuVmln1eMFKmMTUhNTCp9ZO6Jrv5ENea0CSfo5RqNUETasxF7VP17P4gpNdp9QC8I7VPs5oIQln/AW1BO6Vi+KpgYQJRM0loKztS49ytIdSSldJpXJYARjInDn+tJ9gdfIM1wboLKryKQaQoNBd0QK65NVjRMmlhZ0HYbJMWoqoeyYr51bVHq2k1wvhaxnBHDKS5VLdkVsY2nKIoRqbgLaE3LPilQJlj8fjimHddNLcQLkjmBoh8sUktxCgJr+9U2RpcUrH/5yDj8+eWzUHehRGlosxaOn32rL6kMt2TmPB0P7NPZ5lrpiGlx6hZC7nvKG6XkfzVHaYYA/sswg3L93B7PNi7XMQ7lQ/eA9Z79xRx2DHUi5fyZPtGMT9O/++1A7jEL23l1paOafXi2FmQnNO5z72Lroqc0/Cnr6doF4ylpMVE7USdzPbzurAkLlBi7DWF0/yJCAxPjiKSoGejjawKlQTGgbJZJIuggAxc3mOT1/+ki5HJG+KXI1MtHefEDst0PzTOruFhs0V6wy9vdbEuTRIx1sOquQuPb1ySu8NaGeEmbrEUDV5AsyZE/SYqK+5Z3JLAbSlftHIIIy9kVSk0hVwWgGPHOm9d0KIuZ0U5q/kMHJiCLxsxdUXJyhRwMnEZ5ATxFK6PZmllK94bb/m8PBq0GwrA8wd4z0Ez+6dzFi6doBFVsbjxSwdnfrVCzNQM/kYlUCWo6X0t0436ltveJ2Tkxp5zbzbQmsZYG6DQEdAWfsyZ66vIOjwgmQGxxkZJPe6hrqGP7EyIaNLT7m5f+ECoahF91J5SeK1OnvtGpIx4BuEqa+irQwwNwpcgBFKTohVnZw+ohKWnph3v9LHR4aL223eC8gRk3Aue8iWefCtzcH0m3uMq6qNXgwwN8Z66FTIJYCo6tiGQgxRYF2EKUInFdGd2GpmPe6CE46pFpa+Bu27ofvZT0UPcTiVklRVt9+bAeaG6axUMz+cD5eFlhJF3mQdmzrLBmLh5Qm8SJIvQZ4GP9XCXW2HRzHAcfsEH1as0v1d2+dbpRwjGtuJOIZhtAcD6DzfAqm+9CrXsIHezip2KoHLp06nbsPZiwGcAkPfv+s2I5enItG+tWFzq3u9FwOUUr3x+rFbX9UHIywQJxn1cf6RCi4HUQeXz724unrRjz/ciwFKT8ak4uNvb0/GUD9ZJWVIm5+MseBAmqcEsg26nSJOozXZ2ZoYYy8GKD0adafG7Brzo1GgYSJhL0o1g+i1uPM7QS2xiyVIPAdaDtfftNCpwnsxAJdpzmy8tR+lODzj54+nlvqXMMopNSdmYC/w818TopeXr+T0kuRqa8rXHJjlhkweXVZ7oZKtE1/bL/q3hxiWCErGCbCVahDNAltyRipOHmDVEjIaUGYNRuJ0jLn3FHvCxZNzuwcDCE4UYZyi2Qe+lQFg4iFuckGm2iBYEbBOyakA5CqqJkeOeabgluM+VV8JG6FPQyFvezCAlCUzwGNpInoifO1ujqOSvUEUEN/FMUHL3ruw+PRyCNxmr1ui3lL8nmuqu/XvuC97MEApUUFvNy6LowUu0TEKtxZXD80sr1EvKuVI4tjaGquY7eseDACN6mhNUa94v+P6azH6cPwSU+Ry/c71Egzv1Wvlp3okks4liBqOdNqDAWT0zLkt+fn5znsSgZOglnqafW6LeboUw6+suxoIpuuLXVM8RQ4kSh6R1GIY7cEAJYPH1hCz1OQQBnnSwNi2EHSzhEpJZO2GyqGKoItShOmqsH1r+7AHA7DyiRFIkQAQ8LIRBJQhzqCkGaTaFghr8XuEjS+1UQrDuxJXwN0SL4PPE3Kfg1FGtvFRZAHXZBWXiII9oDZ38pr+lwTWEbkZb+jnHidAKVvFCCHwdDH0wfP0XgmtIXc9fOEaxqmpfy5TApcOj3/cgwFKO7B3hoylBRBFC2BaG08H9yd3D2vcSHLyUUdTtIQs7tqfPRiglH9oZBZSk+UYpxa2IpfF0IvQGZUdTd9g/HIvhA1fn+ENTOzKTZrKzDXyuVdvHG4RMKmJMplsRt8mtm3OSQYF3ful0Zu6sRcDQLakwqcxR8nz1nrsqY/hZm3ChtP2PM1KXf331o5kyoPJ5eqD/F2bQaW6m3sxQOk5lZ6p0ghOkiGUcuZXT9JUEBOLze9lmi0llSAf0JCG0l4MUDqKe2gCXLkgVrmXxk4ncw4/q7EGzt9C6eSsd7ULVvIDjEwkfb2PezGAOAFhTCkCfRb/t5aEXUnB0hKZxLhDyOM5hFiiKdQSt7Pd6WGGNUQecsfnMnq5xkZGOF3r914MoC1HZy67BVes4NAWgjLyEpY3jFpI8Cnpe3a1WnwOq5Lv4LQN0bjcyo9paXxKnHHqjj6uYmvWsOru7MkApUTN4tq5juXyLRHzsh24JrWaHAdLr2+6BjDgElik1B9+fYLiI0sFJ/tCyb5P86jxUFY0ly+yJwPInukayKVTwQQErVMPGGAECBaLnqQLNc+jLY2cLGKhclTK+ZP7luFI5nOMwBt5mj6v5BdRN/BMrcHqdsUAOiu71X0reg0nyD7gHR8esdbESKdNiBqmErq7a4j1kgNr62teEMPUOXc97YRlr0Q35fIrfbDl73ueAPrJK0fgK6Uz3TKm029hDYAu5ifca+uWnUw8w3BV7KhD8gfJdLIb7c0ABmZ3OR7Fvo0kjhx3fS4pU037opXIBqWcADV15cq4LgTC7JoC9yIYwCRIYpR6Xn7rRLLhsyuQ0HshankRvarCziBPQG/ybAzv41q1cnV/LooBdNjubFX7cgMlL3hNWxKm3tCtuV0CLPVNJFLujcWWBREzwehTo0G01FtV9iIZQAcBHvjpa59AXxoUyfvB03P0I2BbS23K9QPMIdvXFj+G7CUesbqwyOmLZgCTy2YPHdua7FEEz8Mmu/9wi1liOxFq6eyuNFJ+C7FHSPacs5C21Leq7GVggLnjdhXrnB+m3fnVDbtERnITZadQrUQTbX1BbNWEZT4CPmWr4PW88yEtu4ecYRBmjQfEzDEPA8DquCVnUbe+XyYG6Daoc0X1M3BmgPq5upIlzwxwJZe1flBnBqifqytZ8swAV3JZ6wd1ZoD6ubqSJc8McCWXtX5QZwaon6srWfL/ANmL+q5sHiqTAAAAAElFTkSuQmCC;" vertex="1" parent="1">
          <mxGeometry x="330" y="100" width="54" height="54" as="geometry" />
        </mxCell>
        <mxCell id="Llsa7Mo4gnioszqHE1k1-9" value="" style="shape=image;verticalLabelPosition=bottom;labelBackgroundColor=default;verticalAlign=top;aspect=fixed;imageAspect=0;image=data:image/png,iVBORw0KGgoAAAANSUhEUgAAAJIAAACACAYAAADgZTAeAAAAAXNSR0IArs4c6QAAGUxJREFUeF7tnXmYJEWVwONl1cy4jiKwuOgAHigoosilCAwCAoLKAKID7grY010RWTM6HB6gLmq76oqKAo7TXfkiexzm4BoEZkbXAxQFFTxQ8dr1YFUuxV0dXAWnm+585uvNKqOirsyqzOoazfi++acz4kVUvN/E+eI9EHkamB5QSj0NEe8dmAYlaAgkyJtnzagHlFIvF0KcQkSLtNanZ1RNpmKhVCodk2kNMYX7vv/latZBbFPMnxE728jIyNMdxzkNAJYIIY6rFgyCYG/f938RW9CAZJwFyXGcW+eyPUEQHGuDNGhtSqt/pJSv4NEHAE4RQixqIvfdiPi+tOrrl5wcpBY9bcPdi0LK5fIeRHQmETE8R3eQ9VNEfE4v9c1F2RykDEFyXfckInqNEIKnr93jKphHK8/ztsbNPwj5cpBSBqlUKu1eKBTOJqJThRCLu1EyAFzned6Z3ZSdqzKtQHpvxg16jyk/5hppTtvUqT+klMcDwL/w+kcI8Y+d8gsh7hNCbA6CYIvjOPzbDrf6ZC/f9++PIWcgsrQECRFHs2ihUorldgXSXLapWV8opXYTQpwthFhqg9Cq7wDgZiLaUiwWN4+NjTFMQim1XAgxZpYhondqrT+YhQ6ykJmD9P+K7Ai32fnlcvmYIAgYID7z2TmGYmqjj+/7N9v5h4eHn1gsFn8jhHi88e3HiLh/DNkDkSUHKSZIQ0NDOy9YsIDXPgzQi+Jorzr6bN++/ep169b9rl0ZpZTHTTHzAMArPM/7XJy65jpPDlIHkJRSi4noHAB4nRDiiTEUNjv6zMzMXDMxMfG1GPlns3A94cHk7RZIGz3POyuujLnMl4PUAqRwyrpcCHFYkrWPEOLa+fPnb1i1atVkN0pVSt0Z1VkrXiwWnzo2NsbT3kCnHKTWIMVR3H0AcK0QYoPneXfHKdBhentTuONbZS2636a1vrRX2VmXz0FqDdLPQ0Ce3UwBAPDpCB6GKLWklHqSEOIhIcQCQ+jdiHhgapVkJCgHqQVIRLQOAM6x+n10ZmZm48TEBEOWSVJKaSFEyVorHe953hczqTAlobFB6vZG3ryMjRaVHbfaLS6S32ufI2XZJiFEWQhxhTU6fGfhwoWLL7vssj+n1P8NYqSURwNAzRIiynAlIg5lVWcacmODpJSibipExDqbpzhnNnFByrpNjuOsiA4baz+dd2+e56UypbElABH9yff9ut2aUupbQohDjf6ecRxnUaVS+W03OuhHmRykNtt/ANgLANZZirgKEV/frXJc132eEILv4Riio3h3iIgXmPKklOcBAO8aTYDP9zyPR8iBTDlIbUByHOe7QoivCiGeb2jvTwCwOOkuzXXdsyIzErZHeoIh71cLFy7cz5wuo6uXXwshitV8RHSX1tocpQYKqBykzgeSHxBCvNPSWizjM6XUwUIIBmgJADTdAbJcInqt1vpTZh2h/fYaIcQy829EdIzW+isDRVDUmNggZbmwjXv738/FdrVNpVLpJY7j8KhUMBT47W3bth25adOmKVupQ0NDj5s/fz6fRvO/TkZs1eKfDI3+h01ZpVLpZY7j2Ds1HxHlDg1SWo1Pc7Hdrza5rnsDEb3aqu+M8FJ1kzWK8A0+AxTnKuVRANgYBMHGVqOMUuo74XXLQUYd24UQeyHi/6b129OSE3tECndIbPrBOzB799b2JYo9iqQJUr/a5LruMiLiqcZMGxCRL3BrSUopAQDbKQcAvsTwAMAWE4hyuXxkpVKpu5tTSvEi/GOWvDch4uq0AEhLThKQ/u62/9UzsJGRkV0LhQIr+blGx/8fW0Ai4g+qf4umtR8JIfa2FMRv1a5xHGeLCcvKlSt3mpycPCMyxT3FcZzdzS3+ihUrnjI9Pf2AEMKpygOAOz3PqzOCSwuGXuTkIMU0I1FKfUgIcaHV2RcjIi/Ga0kpxcZob4/+sIWINtujj1LqMCI6I3qKtI9RvIyIbE5ijnJX2ifsRHSk1vrrvSg+7bI5SPFBajDzIKJvaq1fYk73SiketZbZo8/o6KjzwAMPsDkKj0B8BNAsfQERT7RAYhNe2xhuHBH5sHRgUg5STJBYY+F2fks0DdUU2GzrboGwfzSisDnuMztpHgAa7tWUUt8TQrzQKPunmZmZp09MTPy+k7x+fY8N0t/r9t+atvgylS9VTZDWaa3fYCusVCq91nEcXozzY4A4iXdkVwHAVfYFrZTyrQDwEVMIALie57Vd2MepNK08sUFKq8I0d239bFM0Iu1GRHeYh4tE9DAvurXWvMieTdH0xmdPcV6T3MLwTE5O3rh27VqW1ZBKpdKejuPMPhSoJgC43fO8l6bVB73KiQ1Sv7ba/IMSXNr27Uii2tFSyo8CwJvNjm/24kNK2bBINsr8VAhxdRAEW33fv6v691KptJ/jOEuI6AGt9UazDinlBgCou+MLguBw3/fZqnLOUxKQ/m63/6aWmkFORHdqreu25NEr288aZXnq2kREn3744Ye3btq0qWaK4rouv0ZhgHga3DU0t/0sIr7SAulEAKh7CEBEq7TW5845RXzAmOB/fw7SX6eu/2iy83p1aMl4k6lU13XvIKKA4eHRZ2Ji4ofV78uWLdtr3rx51TUU24bXJQA4wvO8O8w/KqX4zMq8QN42NTW1d6spsZ+A5SAl2LVVFeO6bpmIxi1FNbsvO3XPPffcOjo6GhhlT+BXKdEifKc2yr4MEeumUCnlRQBwiVkGAIY9z/tkP6FpVlcOUhcg8ft+x3F4bfKMaqcCwO8cxzlyfHz8J3ZHn3/++Ts/+uijfIZ0DhEdEkfpRHQjEZ1rPtsul8vPCILA9p10KyK+LI7MLPPEBimtRuzIuzZrmmEjM3t9chEiftha24xH50jmK9pW3cmL8A2FQmHj+Pj4fzfL5LruVUT0z+a3mZmZwyYmJr6Zlo66kZOD1MWIxB3tuu5xRHSL2elE9DWtdZ0HkpgXudcR0dX2GqsFSK8kos9Y9X5Ma/2WbgBIq0wOUpcgsQKklF8AgBMspZ6qteYT8NnU5iL3R0R0HQDcaF78xlGsUurH4WPM/Yy8v33kkUf22bhxI18kz0nKQeoBJKVUsweNE1rruudE5kUuAFwfBMFNEUCPdqN113XfQUT/bgF8jtZ6fTfy0iiTg9QbSE8VQvDaZE9DGf9TKBReYq5x+KQbAIZ4AY2I3+hVca7r7kNEvJ4yU8OFb6/1JCmfg9QDSNFaaTUR1d3EE1Hmz6xd172WTVFMZRcKhUPHx8drJ+VJQOg1bw5SjyCVy+UTgyCoO3Huxz2Y67p8El5bi0UgfBgRL+oVim7K5yD1CBJ3ulLqS0KIY601y5Lw+RD7CMgsKaX4zGpfo4IHd9ppp30vvfTSRzKrtIXgHKR0QDpfCHGZ2ccAoD3Pq3OclbZyXde9mIjqfHKzH0vP865Ou65O8nKQUgApMvPgRTcvvqvpoWKx+KKqn8hOiujme2QtwEcBZvoMIp7cjbxeyuQgpQBSNL01uO4jordore1XIL3oq6GsUup6IQT78q6l0Mz34Eqlwq+E+5ZykNID6VWh4wd7TfQVRMw01guboBBR3StdIcQHEPHivlGUxIwkrUb9rdy1NesPKeVtAMCOIWopfCDwSq21aZeUVlfOyhkdHS0++OCD/2k5BWvwJ5BqpU2E5SNSSiMS920L2+qK53nsRzuzFFmv1vlFT9P9TpyG5yClCBIH7hNCfFsI8WSj8x8sFouHZOlQVCn1gtDn9/etkXCz1vq0OBCkkScHKUWQWCFKqQkhRJ1DCADI3LeRUupGIUQdOABwYFL3O91ClYOUMkhSSo7FttlUCL/39zyvFtyvW2W1Kyel5Je7tie50dBjXtYxXGablYOUMkjRqMR+Ao6wppoTQlulOvulNIGKzFX4TMl8hHnPggUL9u/W73eS9uUgZQMSv/2vC0gDAGOe570xiXKS5lVK/ZsQ4l1WuQb3O0nlxsmfg5QBSKVS6Znh+zS+hd/FUML98+bNO3D16tVtY5LEUVqrPOVy+aAgCNinUi0R0fXh401+Lp5pykHKACTWWLMHkgBwrud5dZ7909auUorXZ/Yz8QOSWmEmbVcOUkYghY4feAfFOykz3YKIdaa5SRXWKb9SioMP1r3SFUI0uN/pJCfp9xykjEBiRbiu+w0ierE11WTqUDSK/cYPMflMq5r+SwjBo9JjSQGJmz8HKVuQGsw8hBCfQMSVcRXUTT6l1PuFEP9qAdzgObcb2a3K5CBlCJJS6lmhc3a+hTedk967YMGCF6xatSqzFx8jIyMvLhQKdbbhAHC153k87WWScpAyBIk1ppTi9YqtwMwdiiql2BKBLRJqKdzBPd90v5MmUTlIGYMkpXwNP0GylJb5iw/Xdfl5+JUWSJkFXM5ByhikaFTiMyWOAmCODpk6FF2+fPkuMzMz7L1kD6PaH2zbtu2gTZs2zaQ5GrGsHKT+gNQQWiz0g/RxRDwvbYWa8iwPu7OfiOh0rbV9LNFzM3KQ+gCSlHJfAGCHov9gaOwXCxcu3D/j2G9HhE/K7QDN6xHRDmiYg9RzD/QBpGh6u0YIcabZXsdxVKVSqXNumsbvsUYlts48yZxVgyDY3/d9tqpMLeUjUv9A4vuu6yzNNbj4S02zkaBSqTTiOI5vygWAt3uexw7oU0s5SH0CKRqVOBL3Aab2+ORba80RIzNJy5Yte/K8efO4XvOp1HcRkR1+deXOsVlDc5D6C1LDiTM/rLRd/KVNlOu6HwlDnr7VlBsEwWm+79cZ4PVSbw5Sf0Hi8BJsWz3PUNo9ixYteu7o6Oh0L4psV9Z13ZcSkR0wcA0ijqRVZw5SH0GKprdmDxqXVSqVtWkptZkcpdTnhRAvN75NTU9PH7BmzZoGn5fdtCMHqc8gSSlfx/delrIyf2atlHKFEBWr3gsRsS40RTcQcZkcpD6DFI1KHG6Co23XUhiO66Dw+RCfNWWSlFK82Gb5/1StIIru1ODju5sG5CDNDUhmTLeq3j6KiHUL4m4U2q6MlPJyAKg7TQeAUzzP29prXTlIcwCSlJJDb/E9mBnG9WeIaPo66lW3DeWzDLicgzQHILGGpZTskPRUU9uO45xVqVRsM9lUgVJK8ZMo840dB2nmh5Q/66WiHKQ5AqmFbfVWRIwb360rvSul+EnUJ6zCb0XEj3YlMCqUgzRHIEWLbtt1H9/OZ2Z8FtXJttz8ZKkWS44vdj3Pq3M0nxSqHKS5BYnDTbzNUtoliPiOpIpMkl8pxSNS3WNNAHiV53kc9amrlIM0tyA1eBERQvwEEc2w8F0ptl0hpRQfTPIBpZk8RCx3W1kO0hyCFE01DbbVjuOcWalUbEuBbnXctJyU8lYAML3J/aFQKBzcKphOp8pzkOYYJCnl2QCwzlLUTYj46k7K6+W767rnEdHllowLENH+W6xqcpDmGKRoVLpHCLG3oTGOOrmf1toOExFLqXEyLV++fO/p6em7AGBnI3/XPi9zkAYDpEuFEHaYrPch4rvjQNFtHqUU373xHVwtAcArPM+ri2QQR34O0gCAFB5OHhgeTtrujH+MiPvHUWK3eZRSzTzxjiNiXWyVOPJzkAYAJFaU67qfI6ITTaU5jnN6pVJJ/cWHWUcTT7wcUvXQSqXyyzgAVfPkIA0ISEqpN4Qxcm2bpBtCdzR1ztiTKDdO3maeeIUQ5yHix+OUz0EyeimO7+8kndpN3qVLlxZ22WUXjmNrehGZDoJgX9/37YDI3VTRtAw/lXIc51tEZEb8/iIiHp+kknxEGpARKdq9cWAcDpBjpncjYl3gmiQKjpPXdV2fiGyz2xMR8QtxynOeHKTBAomfdduB+36IiHwCnllyXfdUIrrJqmA1InKo1VgpB2mAQIpGJdvMQ4T+KJdUKpXMYr8REbiu+1XLE+9vhBCHIeK9cUjKQRowkKSUwwDATt9riaNxa63rXunGUW6SPEqpBk+8QoiViGibnDQVm4M0YCAppeYR0S8BYJGhsakgCJ7l+/79SeBIktd13eexDbcQYmG1HBHdrLU2X560FJmDNGAgRdPbFUKIcy2tvQMRL0kCR9K8zTzxElEsR/M5SAMIkpTyRQDAo4M5vX0/dEfzwqRwJMnfzCkYEa3SWttQN4jNQRpAkKJR6ctCiKNNjTmOc1KlUrHtiJKw0jbv0qVL5++66663W5547wuC4IhO02oO0uCCVAq9rdW5vCGijVrrs1Ijp4mgZgGXieiNWuuxdvXmIA0oSFGQml+ZDxoB4M8zMzPP9H3/oaxgWr58+QEzMzPsEfdx1ToA4POe55k+lvKprZkCBuGKpEW7GmyrhRA9v/joBGEzT7xBEBzn+/6XWpXNR6QBHZGidRI/p77TVB6bm3ieV+fYtBMYSb+7rnsmEbGHuVoCgCs8z7Ovb/76vVQqHeM4zq1WZe9FxLoYqUkb0yp/nP/9g9imtH5/UjlKqduFEHVPhRzHOa5SqbQcHZLWYedXSj1eCMEn3QcZ334xPT29eM2aNQ82k5+PSAM8IkWjUoMXESJaq7Ve1isw7co3+w8PAMs9z7M9msyKyUEafJAeDwD3huc5tQeN4Vu4R2ZmZp42MTHx+6xgKpVKhziOc4flFKylz8scpAEHKRqVeOtth3xPZHxWLpefEQTBUgDYJwiChwDg04hYF6/EhtJ13WuJ6Azz747jHFupVPiMqy7lIO0AIEkpm/nL/hYi1oXwajU6ua67kogaLB47nVq7rnsWEa235Db1eZmDtAOAFI1KXw9fxx5uKjUIgpf6vs+L8ZapXC6fHARBS/9HRPQerTXHwm1IK1eu3GlycpIX3aY91D3FYnHx2NgYm5nUUk8g8ZH6brvtdvD09LSzffv2u9evX/9Ipzk7613bypUrF0xNTc1uj4nobkR8NI02dZKR9Xcp5QoAWG3Vg4hY95yoyfT0RSJ6WZv2/XHRokU7j46OBs3yNIv9BgCu53mYCkhKqfeEguwjgg8j4kXtOjVLkJpFmQaAD3qe985e25Q1KJ3kR5Eh7wvdKT/JyPvH6enpPdasWfPHVuVDPXX0pQ0AR3iexwvrhqSU4rMsDkNRMD42+LzsakRSSjUzc5itp9PWNCuQXNddTUSt3mP5iCjbdHZD0JkgCI71fb9hUdlJ4Vl+D/1AejwTW3WsQMTxFvWCUqrpSGPmdxxncaVSsWOW1LIopT4VunU+vW4EAjja87zbqn9LDNLIyMiRhUKB58126WRE/EwLwjsqLemBZIv8ddUT0Ula66Y353HgzhKQuLJLpdJRjuPUlBeV+zoiHtlKhuu6txHRUW3qmJqamnrS2rVrt7fKI6UcAoBPWt/rfF4mBklK+T4AuLjDj29pOB5HaUlBklJeEl5otp1SiegKrXXTI/44bYqr7KzzSSm/AQB1u7UgCA73fb/uKqXaDinlGQBwbZt2dfTHNDIysms0eOxnyPlZNJL9lv+WGCSlVLMzDbud1yLi6/o1Iiml2NyCzS7apQ2IeHa3bcoakLjylVL8smOVlb/tiw+lFK8RP2DXQUTrtNb8MLNjUkpxEJwLrYwSEWcD5nQDEgtrG1mHiD6ktWZj8oYU539/0hFJKcURpTnOR8tERO/XWr+r2zZ17Ok+ZRgaGtp5/vz5bLtds60WQvxhamrqKe2mJ9d1X0hE/J97HyHEbxzH2RrXSC5yzMV2UPZ/xJrPy8QgDQ8P710sFtkNS7t0SOhUk/0U9gWk4eHh5xSLRY5t3y5x3Ht2SdxVm/rESaxqpJQ+ANgPGmujQywhHTINDw8vKhQKHNSZ/TfVRXSyih4Vvsr9amKQWIjrumUiarVTuAgR2Tdi05TFiBS1qenpLX8DgLd4nvexXtqUhnLSkhF6Wzs69LZm7yi79m1ktqvN6NOq+R8Jz+ou7AoklsguUQDgzcZhF+/kOE7rpnYdlhVIXKeUkl0LX2C4tLstsqO5odc2pQVBWnLC/ucYb4ea8oIgONT3ffulbscqR0ZGnu04zmkxRh9T1s8BYL3jOBvYXWDXIHVsXZ9HpG7bE/2n6Hgk0Yv8LMpKKc8Lva3ZbvouR8QL4tQ3Ojrq3H///Uscx2FvJ003Ic3khO6bObrTeq31FvN7DtIOctdmKzXakrOR2QLj2++2bdu2e7tw7OHhIt+bLSGiMzusfcwqef25PgiCq1t5RslB2kFBikbSNUII28BtCBGvNClYsWLFEx577LGTHcc5mYheH2fEivJcw9NXHP/bOUg7MEgtgtTcgognRKAdRkQnh57+T0kw+vyQR59isXjD2NjYz+NC1xKkKHCuGb3HlsmXge2+t2sDX/jWkn2v1eocaS7bFLdD+51PKcXHLKZtNd93cmRtHn2SuFjeQESb7LVP3N/TCqS45VPJFxOkVOqKK2QQL22btV0pxYvrlkcbHX7v9wDgmjDo4ObwJqLTOVxbUTlILbpnRwEpCsf+a8vMo53SOQjzRoZnjz322NzKDinuf7hqvhykHRwkbn4zLyJNfta3hRA3MkBaaw6FmmrKQfrbAOl4ALi5yU9h05DrAWBzNH09lio9hrBZkLISnkSuaUQ2iG1K8lvmIq9SigMfz7q9AYC7GJwgCDb7vv/9frSn211XP9qW15GgB9hftuM4bKu+eXJycnM7S4AEYmNnzUGK3VWDnbFUKu2epZeSTr/+Lz2BF7wXJtmPAAAAAElFTkSuQmCC;" vertex="1" parent="1">
          <mxGeometry x="328" y="158.3" width="86" height="75.4" as="geometry" />
        </mxCell>
        <mxCell id="Llsa7Mo4gnioszqHE1k1-11" value="" style="shape=flexArrow;endArrow=classic;startArrow=classic;html=1;rounded=0;" edge="1" parent="1">
          <mxGeometry width="100" height="100" relative="1" as="geometry">
            <mxPoint x="180" y="330" as="sourcePoint" />
            <mxPoint x="244" y="260" as="targetPoint" />
          </mxGeometry>
        </mxCell>
        <mxCell id="Llsa7Mo4gnioszqHE1k1-12" value="" style="shape=flexArrow;endArrow=classic;startArrow=classic;html=1;rounded=0;" edge="1" parent="1">
          <mxGeometry width="100" height="100" relative="1" as="geometry">
            <mxPoint x="355.5" y="359" as="sourcePoint" />
            <mxPoint x="358.5" y="269" as="targetPoint" />
          </mxGeometry>
        </mxCell>
        <mxCell id="Llsa7Mo4gnioszqHE1k1-13" value="" style="shape=flexArrow;endArrow=classic;startArrow=classic;html=1;rounded=0;" edge="1" parent="1">
          <mxGeometry width="100" height="100" relative="1" as="geometry">
            <mxPoint x="552" y="173.29000000000002" as="sourcePoint" />
            <mxPoint x="462" y="173.29000000000002" as="targetPoint" />
          </mxGeometry>
        </mxCell>
        <mxCell id="Llsa7Mo4gnioszqHE1k1-15" value="" style="shape=flexArrow;endArrow=classic;startArrow=classic;html=1;rounded=0;" edge="1" parent="1">
          <mxGeometry width="100" height="100" relative="1" as="geometry">
            <mxPoint x="530" y="330" as="sourcePoint" />
            <mxPoint x="470" y="260" as="targetPoint" />
          </mxGeometry>
        </mxCell>
        <mxCell id="Llsa7Mo4gnioszqHE1k1-16" value="" style="shape=image;verticalLabelPosition=bottom;labelBackgroundColor=default;verticalAlign=top;aspect=fixed;imageAspect=0;image=data:image/png,iVBORw0KGgoAAAANSUhEUgAAAIAAAACACAYAAADDPmHLAAAAAXNSR0IArs4c6QAAFnBJREFUeF7tXQvYHFV5Pt/s/sTE/99zZvOnCUEwXgBBoAoEgdBaQCq3CBYvaK3FIpdWpIViFWkfb1jRFKQiCIiIAhpMgYKoVEQugigtVdFwKSCpxCAk2fnObkJDsjPH+bYz+8yendmZ/f+9nNnseZ7/efJkzpzzne9798w53xXYuG3XHIDtevXjxbMxALZzEIwBMAbAaHNg8eLF81544YUDGGN/whibBoBppdQC+nfwR/9+gTG2kTG2QSm1AQAa/2aMPe267vdrtdrjo8qlkdwBOOcnMMb2B4ADA8HPVn5PMsZuB4D76a9SqTwz2wFNeX+kAMA5PxUATmWM7ddPBiulLisUCpdWKpVH+jnPIMYeCQAMSvCaQDYDwGUEBkRcMwhh9WOOXANACEHf9Y91u80rpbYAwPOMsecYa9yEFgZ/O8yAyesZYwSCj8/g3aG/klsACCGI4ST8Tg19cNzNGLvHsqwH6/X688Vi8flKpVKNe4lzbheLxUWu6y5USi0FADo80t8uaZJSSn1XSnlMWj/TnucOAKVSaVfLsq7s8Kun0/ulJHREvJcx5s6W6bZt76WUOp4x9j7G2Cs7jLfBdd1D8nRryBUApqend6zX67cwxpbGCOFFErx/xbtUSvnr2Qo97v1yuVzyPO+kAAiv6zDH6xHx5/2goddj5gYACxYsmNy2bdvNjLE36UxQSn0DAD6HiL/oNYOSxrNte4VS6pyk55ZlvTYPt4TcAEAIcRNj7K0xwr9ASnnuoAQfnUcI8ReMsRXBAVInAS3LWmY6CHIBACHEpxhj/xgj/P2llA8NQ/jhnLZt70M7EGPstTF0rLYs68hKpbJ2mDR2mtt4ANi2fRSdsPVFFIvFxRs2bHjWBMaWy+U9Pc/7VgIIPo+IZ5tAZxwNRgPAtm2ulLpT1+wBwHLHcW4ziamdQGBZ1sGVSuUBk+gNaTEaAJzzD9HhTmPcxxHxEyYyUwhBN4Sv6rQBwCrHcd5hIs1GA0AI8aB25XvS87w3VKvVionMJJqEEHfE3VQYY28M9BJGkW4sAGzbPtrXxn1H49aZiHiJURzUiLFte7lS6tYYGv8VEf/ONNqNBYAQgrZS2lLD9jQidtLCGcNbIcQvGWN7aQQ9g4ipKuVBL8JkAPxKO1VfhYinDJpBM5mPc34+AJwX8+6hiEi2CWOayQAgL525zdMqwLsdx/mmMZzrQIht28uUUvfpXZRS75BSrjJpDUYCQAixhNyxNEa9Ii929+np6al6vd5mcQSADziOc9kYACkcCOz8d0W6PYWIrzaJcWm02Lb9mFJqd63fJ0zzGzB1ByBHjygA7kbEQ9OYbtJzIQTRT+uItgsRMdGANAz6xwDoE9fjAAAAVziOc3qfppzRsGMAzIht6S8l7ADXI+J70t8eXI8xAPrE6wQA3OI7ipBnkTFtDIA+iSIBAHciYptDS59IyDSskQAILGurwxUopR6TUu6RaUWGdPKdRZ7S/QdNNAqZCgDyvZMRAGyRUjaVQobIuCMZQohtjLGi1sk43wAjAUBME0IQAEohA7dt27bj5s2bf5cH4U9PTy+u1+u/jaH1bET8vElrMBkALbYAz/MOqlarPzGJeUm0lMvlAz3Pa3MAGauCu5CeEIJMqssjn4HTpZRXdDHE0Lpyzk8DgMtjCNgXEX82NMJiJjZ5B/gnxtgnIzR/BRHfbxLzkmgRQlzFGDs5+pzC0Uw8xxgLgBhn0IcR8Q9zAgCKT9hHo/WHiHi4afQbC4CpqanpQqFAgZfN5rrudK1Wo+QNJrc5QogtOoFKqU9LKdtc24e9EGMBENwEKMTrFZFzwJullN8fNtM6zZ/kCwAAxziO0+bePuy1GA0A27ZvoJNzyCQA+KjjOJ8ZNtM6zS+EIL+/uKue7fsEUrSyUc1oAMS4hd+IiG8zioMaMZzz6wHg3doB8FEp5Z4m0m00AGIcQ5gfE2A6zXF+AMbeYExnpp4EYjUi6t62Rv2wOOcUqfwujahvI+JbjCI0IMZYAASx+BRjHz0EXi6l/GsTGRnSlJS5xPO8I6vV6n+YRruxABBCfJAx9gWNYca5VesCDYD7Yz1QlCKIpZR/PgZARg4IIX4a5OcJ37gWEd+b8fWhdhNCUCqZq2N0AUullP81VOK0yY3cAUql0gGWZREAmk0pZbwOIEqvbdvfUkq9XVuDccogIwEQE1mTO7fwcrl8kOd59CmItl8h4t7jHSCFAzERtjcj4p+ZxLgstAghKGPZ/GhfANjbcRwydRvRjNwBbNteqZR6Z4RDxgVUZJFegmv4exzHuT7L+4PoYyQAOOeXAUD0ujcyAPAzkxq1FlMBoEfXGqtI6fArJasgubXN0T4B4x0gbWsrlUpvtizrdu0EPfSMYGl0a7eAjyil2gxXnuftWq1WKf28Ec3IHSBQpjzKGFscckkptVJKqatYjWCiTgTn/O0AQFnDWppS6ntSyqNNItpIABCD4lSqlJpdSvkBkxio06LHNGjP/woR25JIDXM9xgIgyAv8I8bYq7Rv6LGO4+i5g4bJw+bcSXkBqIOJQSENuozgXAIRQghKDUspYvWt1DgPYc754QDwg4SlPAsARzqO87Bp/DYaAEmfAtN+UQmGq6as/dC2E/3QthtME77xO0DIsIRAS3o89Dt1uVw+2PO8+5OECwBnOI5D9QuMbMbvABEQtPnaB8+OQ8S4vHwDYbgewKJNamxW05DO3ACACOacnwwABIRoG1r6GNu2j1VKfTsBacb7LuTmExBlMOf8CABocQ0HgKFo1xLcv4z3W4zyM1c7QEg45/ybAHBiZCEDT70yf/78nVzXfYwxNhllqFLqNCkl1TTKRcsrAE4HgC9FOFwJVKwDSyJt2/bpSqkoDUTOmjlz5uz13HPPbc6F9E3XAyQxcWpq6jWFQoFUxc026F8e5/y7AHBUy3YKsMJxnH/Ii/BzeQaIfAYeCGoDh//1ECLuPwjmc87fCQAr9bk8zzugWq3+5yBo6NUcufwE0OJt2z5DKdWSOn5Qu4AQgvIAL9OEcKsf+39crwQzqHFyC4CgjBwlW4imkKUiTVSeJbYyaC+YWiqVTrQsKy5pdS6ufToPcgsAWogQgsKtqaJYtPVVO8g5/xIAtGT7zIOVMgn8uQZAYDEkP/um3wAttI9FmsjLh0rGRwtXrFdKHSSlpLRwuWu5BkCwC7QVkSZPHCnlR3stjYTD3yWIeGav5xrUeLkHQJz7mH89+6njOAf2mokxZWzIzn+04zjf6/Vcgxov9wAIdoEntMNgxS8u1eKP3wuGCiGoiAUVswjbk4i4ay/GHtYYowKAls9AvzJyCSFI02hHhNXXA+cgQDGqAPidn1Nwx14zUAhBB879eg2AILHkS8JxXdddV6vV/qfX9MeNN6oA6Ety6ZiAz1ntAJzzfYOEkktjhHOdX3fo7E2bNrVkSus1KEYFAF9njFEp90ZTSv1ESnlQr5ll2/YFSqkP92IH4Jy/HwC+nELjBtd1l/VzNxgVAFAS6YURZvalxqAQghxUyVG10Waqbwj0F2sYYztkAOldfsnZwzL0m1GX3AMgIQjjfYh4zYw40uGlYC7aAfYDgCsdxzltJnMIIUh7mTlpZKFQ2HPjxo0t1s+ZzDtyZ4Dgl7ROW9hT9Xr9oH5+Oyl7WacKoJxzAsiU53lr48LAhBA3Msa6CXc/CRG/1iuhR8fJ7Q6QIHxSzAytOKMQguoBfYgxdnCEyf/u/5ucQyl/cKMJIej/4iyHFwLAzkqpP2KMNW8xAPBBx3G+GL4fGMIoDc3fUuAMXXsty/pivV7/crfnhVwCICkdq8+MoeURSvAQCmVWI4EjYqMWohDiFsaYnjau6heT4MFz3QO6WTXdtm2ulCKfyANidgSa5y3d1CfOHQD8Wjx02qdTv96G6R3c5puQsF2f6buRLQSAUxljC7Q+TyDibnEA8PMjPaCUOmvOnDmrt27deofmCBM3VWZX+VwBQAjxMdpOY1Z8HSI2r4H9+FYmjTl//vw9XNclC+Fs248RseFkEldvIBj82einodOEnuftVq1WSUXeseUCAEHKWBK+XoqVFnc+IlJxiaE0PaH1LIhoJsHoAIBuhs9UoMpoAPjWt5czxuiwQ8KPa7PSxHXDzaS+fnkYCvxclPCcDn47Mcam0+aKlpXlnP8zAJyb9g4993MpPaqU+ksA+BoAvNTPT7hL8N7P/IipfdPGMBIAtm3vrZQ6KRB+1PgSXc/QhR9s122ZwAIi7yoWi8e5rrtEKXWPZkTS5fIC3RzCm0KpVNrVsqyHGGNTKQKkmMRjKQ29bdvHKKUoKcW84J01/tWxmWY3aRyjABAEWtIvnv4KcUSTrZ+2fcdxbktD9yCex6S0C6dtAtQ/9b/e/3zdHS2DF3R6Wil1ueu6X9X1FpxzAv4RlmW9TU84GbzbTJ3POT+FFFPaejNVKTUCAJzzPyWha9E+cfKj7/35jLEXByHcLHNwzg8DgDsT+jbrBAaZQ6jsHf2q1wDAeY7jfCPLHFNTU7sXi8VPBUCoAMBFjuN8OtiBSD/QljUFADIl0hgKAISf/4UOdEqppZZl7a+UIgAkNgC4AQAurlQqRtYN5Jx/GAAuSNixEsPDhRDH+bmE9vQ8b28AIDMz+TZShvSf+ynnH/c873Ep5R1JjPEPx7SrvDHm+YWIeE4WcA0EAAsXLnzp1q1bSeBUOJkIpi0xS7vXvxVd7FcLuzlL52H2ifMWjtDT4jJeLpdfppS6ivIfp9FMFkPHcUhv0NI6lKa5DRGb9RZTx0/rMMPnE0KIgwFgmVLqiITrW+LQSikKu1rVD4PODNeT+lon8270hC+EoIzn3er117mue1itVns8JEQIcbb/OblQJ2xiYmJq/fr1m1IJDjr0bAcIMnyTDpv04IemnHrj6KPv4irXdVflLbwq+Bb/b+QK1rI+P/P5UZVK5faUPEKpMrMsi4dBL0FCKqqq1nLF7LYwxawAQCHSnucdr5QiG/lMiiIS035Ah6gddtjh1rxE1Qoh/p4xdl4WkIfOKaVSqWxZVlLNQ4pkekYpVfV3CzIC0VmgzVdAzzMYU1SLQEQ8JV+DRqMYxrlz53593bp1dNVsazMCQFAd+yP+RHRXT7ur6pM+RAL3PO9OKSVl1fJSoW9IB875KwGAyr5Ew9HSqHsvIl4b51IeCOhfHMchC2KzTU1N7VYoFKhOcpzms3mzCHIUrE0jgDH2a9d131Cr1Uhn0dK6BkBw5yThR6NjOtFAiLwPACig8n7HcX6ZgWAju/indopFfF0XxFUnJycXbdq06ci4dHdpFdBiXNAaU9fr9YWbNm16nv7tB6s86v/KX5NGk1LqdillSzh7A4BpL4bP6ST/4osvkpdNWt0+cp2+zz/83V8oFO6rVCp60YSsUxrVr1wuH+l5XrcBIA0jVULW00yZRBIqj7xJStnQPXRzqIwDXCYABFv+tYyxJN80qoh5IwDcVCwW7+3mFGqUlDsQ041+PhimRrcg2vF0X0LGWA0RS1nWbtv2IUopypgabWch4sXhf1BuZdd19/evjDv5SbRexhh7uVKKMqzStTtsTX+D6ECpAAjMnVTgoO3uTsoKvyLGJYVC4aYNGzaQqXJkmxCCrlx09WprdM2jZNbRB/7B+BdSSif4lVJ28GbKWz9xZGa39YTv/NWI2FKeXidqwYIFi7Zt2xaVycwAkJQHDwA+V6/XV8QdLEYRBZ0AkJYJ1L81kKdOM5kUOXj4RbCjbmOdWBZXjTxV2RMDgOcRMeo53Ziz4w5g23Zczns6SZ48zOSMwwCYEOKTjLFYvwOl1KmFQoHOOrJQKKD+CRRC0BZ+SITuTJY66h9YBvUooRYfiEC/QDqYaCPA0XU1bPf4rmJtt4pEAAgh/pgxRgeNYjgCbV1ke65Wqw8OQwjDnJP09v4NgJw5s7aHLcs6tlKpPCOEoFQ2Z0Re3Oq67t5ZHDjj3N6pNK3jOI1Pjm3b+9DnJo2o6DvRvp0AcB1jrKXSZdIgaZOPynPO+SO+YWqPrOsJw9Tj8hmReRgRSWOa2DrUHtjXz0dEV1K6BVD9AdLHdGqJxauTAFAUQjznl24tR379uanYkVVA3fYrlUqvtizrgSwePuHY/s1oH8/zFunZTek5AHzWcRzSqbS1Dkqe38ybN2+PULMnhKDYwU4eRx1dw2IBELfdzTQMqlsmm96fc/4qMk2TJ04WWpVSF0gpz7Vt+0ql1Cn6O2T/oBrJlmU9vXHjxo1TU1NLCoUC7TJtdRIC0PyN4ziNBJW6nAIjWiNNne87sNqPL7izWq12TJ4ZC4AYYmNPkFkYsL308esFJxmDcGJiYmc6GAohfqvnM+qSP99BxAbwgrpKVIBy53CMiYmJHdevX09xkplb0g5AKIomXWxOnHnk7axjgltWyIVzEPFC8uwpFAqUX3hGLarJC/wm9Qokb0XEbg6q8ddAIQQZGMibtdGUUudKKWM9Xma0khF8KcUh5GlEbNhOAq3dSj3NbCeWxCW9EkJQqprVESdQktOWQqFweDfq96QdoB51yvRdk95VrVbbUqOOoBxntKQEfUlzrLikVX5RybP8a/5FKRNS6jmy/sUWxLBte7lSSn+GlmUdUqlUCByprQ0Ak5OTC4rFYsPSFDbXdXfPcmdNnW0EOwgh6Cr3w05Lo5tAnBV0cnLyDwqFAvkDUkVxcoVfZFkWHd4e8Txv9dy5cx8JfSSWLFnyEkSkcvSkUiaff4ovJD3AiUopPXPpTYh4QhZ2twEgQbHQ8b6aZaKc9CENXdOZIgvNaZFBALA8dGEPKp7sHOwImSyLgecP+QTSdTF63fsCIlJ0MJmETwtSzUR3HeE4DpWu7djaABDEtlMypO21XWNZ1opKpZIp3i/FR+D48Jfq3xIo1uHqkKlUWZRSzPrKIAoaaWukAbQs6wStirrerwkC3UPYL2Wzn5Tyv9OEGAcAGwAGVnghjcAhPc8cdSSEIK+mOHc4MgMfsGbNmi2dDEmMsd/4ltZbotlGbds+2neZz1QckwJCAtNvCw2WZe1Caug0/iUdAtvSr6YNNGLPr0FE+sWmtoSE1eF7pMwhlznyjO68FUe0gj0IDr0fEaPGp8S5E20BnHO9LEvaGkblOaWcWZb1LBA4e5JfRGoAqJ/JjE71LaVwI0yjXYAyjNDBjj4PdOCLNtL9k2GODoydGnqetzRrhfKO5mAhBGWxoPsrRfKMfFNKUYJJcnvb0s1iA8spHerCwMy41ynA5Sy/CCYFxlBEj96aAPDHo1tF8+AdGuHohjYxMfEj/9S/exJ9lmUtm7UeoJvFj/v+PwdKpRKFuVEYVyPNi9YuQsSGbT64zv1fCgDIvLtP2Ceq4g1yI9HBUc9RXKEDY+BpnVksqS5hmUcad2Tkzm1ZFgW5Hs0YI9+8ey3LuoKCQkL2ZARAiyY2TscfFK1sqOv9xFjr6/X6ylqtlhR3kCidMQCGAFw/1Y1KmJa8rUj4La7nk5OT89auXRu3a8ya+jEAZs3C7gcQQujGtk6DrEbEvbqfJdsbYwBk41NPewkhKJQu1t6vT0S3ASnlv/WUgMhgYwD0i7Mp43LOPwMAsd5A4av9Kn0TJW0MgCEBgKYNdPgEgmgVEnr0hFLqs1LKr/SbvDEA+s1hw8cfA8BwAfWbvDEA+s1hw8cfA8BwAfWbvDEA+s1hw8f/PWxngwh8gRjhAAAAAElFTkSuQmCC;" vertex="1" parent="1">
          <mxGeometry x="540" y="305" width="118" height="118" as="geometry" />
        </mxCell>
        <mxCell id="Llsa7Mo4gnioszqHE1k1-18" value="" style="shape=flexArrow;endArrow=classic;startArrow=classic;html=1;rounded=0;" edge="1" parent="1">
          <mxGeometry width="100" height="100" relative="1" as="geometry">
            <mxPoint x="252" y="180.00000000000003" as="sourcePoint" />
            <mxPoint x="162" y="180.00000000000003" as="targetPoint" />
          </mxGeometry>
        </mxCell>
        <mxCell id="Llsa7Mo4gnioszqHE1k1-19" value="" style="shape=image;verticalLabelPosition=bottom;labelBackgroundColor=default;verticalAlign=top;aspect=fixed;imageAspect=0;image=data:image/png,iVBORw0KGgoAAAANSUhEUgAAAIAAAACACAYAAADDPmHLAAAAAXNSR0IArs4c6QAACbRJREFUeF7tXXXsZDUQ/i5ocA1yuAU73N3dQzgcgrtDsITwB5Dg7hosQHCCu0MOgobgcIE73A9y8Ae8j7wNm0e7O5V9r287k1zul91pO51+O22n0+kIKGWtgRFZ9147DwVA5iBQACgAMtdA5t1XC6AAyFwDmXdfLYACIHMNZN59tQAKgMw1kHn31QIoAFqhgXkBnA9gJQBzJi7xlwBeAHAogG8Sl7UVruCFAYwBMF3qyqzI9z2AUQDGpyx3G6aAZwCslbISe8h2O4DRKcueOgBmAPBjygrsI9tfAKYGwP+TpNQBwF8+LUCbaVkAb6TagdQBsAGAx1JVnlCu1QC8JOStnU0BMHiVKwACdKwWIEB5kqJqASRaCuNRCxCgP7UAAcqTFM3NAkwofApPlouyrwGMK5U0EsBsAFYFsB6AqSTKE/KwzpeFvLWz5QKAsQCOAHC3UMPbl65nAiOUFAABGowxBZwF4BQAfzjKMU3hxGHZAxzLVdkVAAEKDAEAffA7AHg+oH0W3QjAzQBm8axHF4GeimMxXwB8CGDliG7kOQC8CmAuj76oBfBQWqeIDwAmAqD79b2Adk1FVyyswYsAJnWsVy2Ao8K62X0AsB+AqwRtPlXhWVdQ5gQApwv4ulnUAjgqLAQAPHThr19Cf1eYJDuiyQBwemGAipTUAkg1ZeBztQCrl2Za0qQPAFjvtgDukjRQ8qgFcFBWldUFAJ8BmN+hLV8ATFKEezHaZ3phW2oBhIoysbkA4FwARzu05QsANnErgB2FbSkAhIoKBQD36y6xAyEA2LNYB1wn7JdOAUJFhQJgUQDvGyphXN6shs/XqXz2tIHn29KZVP2Kv2pG/kpoKCwAUXwmgMUBzCTpdQDPpQAOLsu7TAGck38xtFv9pbuKZtodzO4Q7dttAa4GsLerAB78nxSOsIcAHFf8+71XecnWZ2sA93gI4VvEFwAEpimAdBAAmBnAd8IONgGAjmhvFmO3TAgApgXwscWECvvvzOYLgCUBvFuTBVjaIdCzSQBQHScDOM02Cv0swMYAHnYewrACvgDYpDjPf0Qw15OFawKuDbqJB0ec86tkWhtsCeA+YTebBsBbxTE4AWukfgDgtupsYUdjsV1WXKk6qKzMZQ1AF+1JDkKE7AKoE+mWs2kAUCXWce4HgOMBnOGg1BisvgB4u/DQLeUgQAgAPgUwn7Ct7l3ANQD2EpaLycap/DdThf0AcGy5+o8pTL+6fAHAenmP8KN+DZTf+wKAIOPiSkopWABvABxTRsVIOxuDLwQA3K3QVy8hXwC43lVstQU4sriVSxdrneS7COzIyGNd08Kt2gcfAGxVnDbe66iMVlsABlKe59jhUPYQC8C2eT+fq14e2PQiiSewuzyjhrnNpA/AhVptAQ4DcIFLbyPwhgKAIjDYY/0iGDTUCdTpDqOAni3Dxl272GoAHFIg/iJDj+le3NyiicMLJ8k2Xd9tZonI3QXAPoY6QqeATpUPAtjDwWNnG1jGA/L0b23XkS/5pVOALSLpwMp5BKehXw2yMJS940Kvfu29COR+/BJDYxTAlrHj4oogtsZPtHioYliAjshM0cKTO/rFfYhlOQUyT4EvSQFg25FVfQ6cgn4wCNNruvYGAGPiOSBV4qGLLSBCCgBbfF0sC9At8y3lxRCTp880sLRgdJ/y8CuUYgPAduYxEAAwwPKKIQBApwt0FdMavFImcOKpGS+AcIFHU08X727l36ED3ynfagDsW2TlutKgCXqVaFZMJLUAdUwBsQYxpB7JIvDPwuM6haWRc4pj7qO6vuMFFdMOZyAWgGfXPMOukgJADolWA8AW+tSGXYB8iAbLKZ0CktwFcBt1/WD187/aY+4Cahbd2JzEAgxaTu9dwO5FqPUNg5auUr8CIL7CvQGwK4Ab48vTs0YFQHyFewNg5/JqdHyR7DUqAOJr2xsAvPxAN2iVdBEoH6RWLwIZJ3ebbgPlo23glCwCk/UD8IDhDgVAvgDYrkh5fqcCIF8A2K5CqydQjolWTwG2W0EKgEwAsAWA+3UXIB9tA2erdwGM+nkgqPvuhdUP4K6zfiW8/QCbFg81MbSqTlIAxNe2NwCYdMF03y6+iP/VyBA0xiKSXK6GVWX6oEz3GpoubrHyGtiCnp2WTgGe1YuKeQNgQwCPipqIxxTLAvBatMsNnl49cEkIUa2n1QBgaPXjFs2cavmcUcBMqtgh3i2kp6tKa5aZuaufx4oJ7HftzRWyviHmUgDY9EkrzDo6xEQdprzHqxRZ0Hmb20TeFoCp058w1NiGbWAqAGi1H4C3Z6oZNYkHBYDcfrQaALZn2xQAmQBgjeKK1XM6BfyrAd81QKstgG31qxYgEwvAlaXp0UMFQCYA4KMLdT94FMsP0KZdgBxOfpze20Du5/lSRp2kAIivbW8ALA9gTHx5etaoAIivcG8A8PGF1+PLowCoWafeAOiVEXNQruBhswCtdgWPAsBMk1XSXYD8J9xqP8ASAN5RAOTrCGKGDFMCZrUAmVgAPsJgCqhQAGQCgEUsr3AoADIBwELlO3m6CMz0MGiB8sEIOd7DOYdtGyjZBYRrrXcN3n4ApkRnavQ6SQEQX9veAJgHwOfx5VFPYM069QbA3MUDB2NrFlYtQHyFewNgZJHP9wuLPHymlc+1Vml/AJd3fbhCkYDxNQMfs3Hebfg8VwBwwc0HuqpUzdRme4ew1ztG3gBg9sxxCoCBewLZQJIAYArVrxQA+QKAz6sx47aJdAqQzdXSbWCSFqDXC5kKgAwAMKMlNz27rgDIAAB8E+AnSz/5lIzpO4aRMbFEh5htfLyhDh40jc5gFyANCLnQ8vYxL7kyU0uH+PagaWfGc5udLGPlvQvgqyA/y4AejSvXbWA0BRoq8gYAH1MwvU8zSGEVAPG16w2AqQBMiC9PzxoVAPEV7g2AKS130eOL+F+NCoD42vUGwOQAJsaXRy1AzTr1BgDl9L0V69vHawHwqRqSLU2dpO5UroZ1P2V7UxFgw/cS66ZWAYBP0i1XHoy4PtTcrdhUAMAsa0y3xwhrXrPjuqpu6gmAun/hdXU+FQDU1V+vdqgkBYBMdUOpJwWAbPCbWAvJJQvgHGYAcP0Qk3wfj44pQ/S6hhkA0ZU1jBUqAIZxVB36pABwUNYwsioAhnFUHfqkAHBQ1jCyKgCGcVQd+hTbW+bQtLKmoAEFQAqj0KAMCoAGlZ9C0wqAFEahQRkUAA0qP4WmFQApjEKDMigAGlR+Ck0rAFIYhQZlUAA0qPwUmlYApDAKDcqgAGhQ+Sk0rQBIYRQalEEB0KDyU2haAZDCKDQowz8OvHOkSjnnVgAAAABJRU5ErkJggg==;" vertex="1" parent="1">
          <mxGeometry x="30" y="110" width="128" height="128" as="geometry" />
        </mxCell>
        <mxCell id="Llsa7Mo4gnioszqHE1k1-21" value="" style="shape=image;verticalLabelPosition=bottom;labelBackgroundColor=default;verticalAlign=top;aspect=fixed;imageAspect=0;image=data:image/png,iVBORw0KGgoAAAANSUhEUgAAAIMAAACACAYAAAAoCdrIAAAAAXNSR0IArs4c6QAADl5JREFUeF7tnQfQ9kQRxxcrYseKomIHuygqiIO9i72h2Dv2hthRsTfsXSzYPkUsWLA7FhyZseAnRVQEwTJim1Gxm9/r5p3wcJdskstlnyQ7842M7ya52/s/d9tvG5kvnU9EniIi9xSRi4vI8SLyMRH5gIj8do5i2WaOkxaRB4jIU4vFv2Zg/qeIyKtE5OC5yWZuYLiJ7gZ3Niz01xQUnzLwToJlLmDYUUHwxA6rdoiIvLI4TrZ2eHatHpkDGB6vQLhsj5X5k+4SgOJvPd7j+tEpg+GOqhfslXAFvq+7xKEJ3+nmVVMEw9V1J3iwUcr/FJH9ROT2InIX4zOH6U7xLSP/WrBNCQzbKQgwFy9olD4WQ1WPuJWIvFFErmx8nmMDy+PXRn7XbFMBw/0VCNcxSvuLuhucEOEHIK8xvutnCog3Gfndsq07GPZQveCuRgmfJiKPFZGPG/jPJSJvEJGHG3hhAWDsEp8z8rtjW1cw7FA5EqxCfY6IvMjKXOFjt+HoAHgWersqmbFdx/KOUXjWEQwoe3gPdzJK7IN6JPzByB9j20dBcSHDe35XMUX/ZeB3wbJOYEDbRzm8uVFyP1QQfMPIb2U7SESeaWT+ru4SHzHyj8q2DmDYRUHwUKOkMBUfJyJvNfJ3YcOj+foWpuiHFRRHd/lYrmc8g+HcehywG1zYKBAWCI9jLmpjigLS0hQ9PdcA23zHKxjuq0DY1TiZL+uRcJyRPzVbG1OUUDlWB4qmK/IGhhvpkXAPo5QwFdkJyEMYm7YVkde1MEU/q6D40tgDL7/vBQyXqJiKZzMK53ki8gIjb06266p/wmqK4qzi+Ph5zkGGvuUBDI9WIFzRKAyUMRxHmG+eqY0p+ivdJTg+RqMxwXAb1QtuaZw9piJHAkkn60RtTFECX+wSFg9pchmMAYar6E7wCONs0MKfICJvNvJ7ZCOXgqCYNSr6fgXFD3JOJicYzqkgwHt4EeMkcQNzJEyF2A0xfy1R0b9WTNE/5xBALjDcW4Gwm3FSmIo4jn5s5F83tjam6I8UFO8ZepJDg+EGCoJ7GSeCqYigthj515mN/IvXtjBFP6lK5teHmvRQYLhoxXt4DuPgDyz4nm/knRLb9dQ/YTVF0T1QMn+ZWghDgAHFEL3Aci4yH0xFrIRZFq5UFpQEHfQJS1T0ZN0lcHIlo5RgwE9PHAElyUKYihwJX7Ewz4injSmKmc0u8ekU8kkBhispCB5lHBCm4pM0N8D4yOBshMcvXYDzj070FXI1SLuzmqLvVlD0Urj7gAG3MccBuwG1ihbCVORI+I+FORMPKXNkO5dEBdVDnHg4b6f+CcuRS21HGRXtVNvRFQwEkgDCDY0LhqnIkXCMkT8X26WKZBm081VXOBFFq1Msx1ifrDqC5VvfU1BQQNyK2oIBzZedgBCzhTAVmQhKokci0EVuZIiox8Sc80JUjXN0PMw4ICK5xDq+beQXKxi2r3gPyRq2kHdTkaRa3L0Xi0yGEDO6hDfCcYd/wmKK/rdydPymaSIWMIBEdoOdm16mf2cX4EjwXljyYhE5oGFOHIceciVCw3yggsJiiv5Ud4na+E4dGG6hIECJsRCmIlYC+oF3IjbyE0M6HbUQmMye6aVFMfD+xgEyH5TMz4f4Q2C4vCqHjzF+wKOp2DT0V+gcm/j4+91XrA3LM7l5rqD6xN7GD79NQcEPYpNWwcBxgJVwSeNLMRU5EtamNqDYLs9fWAootihkFvpqkUNxMwujA547KCgspijJQS8RkVeX466Cgdx++htZiKOAI4GjYd0otitQbh+r1bxTKi9fJmHxg2aeFjpSf9DHlmCwAsG7qdg0edLv8TKSvLpKHIuPLLKMrh342zeLWso9m17u7O9UovOrx4FmoT0AAwGS9xm4vZuKhilIzO9PXeTVFAwcfSG6tYh8wfIRZzxknAOK3RvGtQUwECi6aQ0jpiJHAkmb60zMFWX37IFJsK2Wyaj0bgIYq0SZHg3C1pVoXgIooqZoHRjQB37fcubsHihcXgjHEpp2+S+UL3GqiFxDjw/GTb4lTp0QPaNoG0g/hvJf32LevnLiR0zJQFsK/vgtO0ObD1EUmzskvbrg1cUn9tBEofoLTC6isU1UBcbqf+cACouaTN6AAcUpdk42CWP17ziqcjidCCLtq794y4LH5oEyeS0RoRFolUjCJdGkDwGOY7XjbOugkfHDKcFwFGDgl0U1D5p2X6IGYuhyMaqrU0UU8cY9LTLpk0Tkcn0Fos8PpXynBMO+pWnZJlu3Tj64bnF5DkV42D6R6OUok/gVYgkhtO/BU5eKKCImvJySUoGBhib7VJ1OnPe0uWkyQcYEQyrQMgd2mKbsLCwIin5ikc02C4sXM7Vy3QcMGAcnighA2FCYQ7EJ3LXkLdRRTIsd2hZnXG0aXuByJWJX/uMcL/8bB5qVLqNNx4ncAo6r6v9a9RV0E8CAlzMlxcAA6MjT+LuInLHyjywo/r+zhBAsIezQ4DHRQiYNybC4N4ekJp2BmgtrnUaKcdKE9KMNIX78NDFztc8Y6sDQOp6SGgy3jYVH+8w48CzaeV22VS5AUH4PEDBnY9S1y5xFZK7BQO5Drj6IlJtxb0SMhgYE+Z98gyMkRjipXmZZ1Y48rsFAmhjpYrnoHYWPoK7x11CAwC3Nu2kyEiPSATbDwwMJxDUYiKd/ZqCJx15LKledVZAaEPhSiPLWNR2jHKCv08oiRtdgoK3/EZZZJOahzIyq7aGPDHY+gHDemm/RieYtiecXe90ChohkiDqSlj8UICi2+ZCI1GWHkzz8zkxA4DOuwTB2RlBTciiuZ1zQXYi08zoiW/m9XV7c4xnXYMBdPPYFXy8sHCrPjgi4j+lL69/rR95LMy88ebnJNRi8VCHh6Qulr1FGhxeyC9GiD31glcg1fHqXFyZ4xjUYqBpOFUjqIytcraGMJiKz/+j4YnIJQ/oACjOK8xjkGgwoWYePIZXKNwkqhRp/EJ3EddyVbiwioQ71hP/rPJBdv2d5zjUY7jZWD8OK5GICIpfzPjUSJjGYXIxYricOpljJYFe3vmXB63gWMDRIMJalRMV1KLhGQAezlDgDRKUzSmgobQ19g4qzVSJFjmhobnINBg+laDh8qH9YJbKjqp3cCYcTfY2d91gkRBr/UnlRrL5kLGebazB4qFqm4CVUrl7GTdp0qKUbCoAhR5TMKMrRCD6tUh//RZ/dxDUYKM8jpDsmsYAXCAyAxFf0gi5mIMcDzioAEbonAivD2kQjpWxcg4GkkjEbesYsiV9o8Yj18tPYgpHDWOoWVR66o1iaZ6QEAu9yDQbaAo95OVefnMA+C8VuZGma0ecboWddgwHTbcz+TV1rQOi2SkYSlkVdwkzdYtLGoLFVTmI0LGCoESiKnrXJCK/BOfXclZvu6G2AGVrnkwgNYYjs5ybsuAYDeYmEeceipiLiclxkKwOCugQUTE/ur8SRZiHqLMi8ykmuwTBW9K5cgCYwkCZOYy9AwDlvIepJqNcgPF9H+DZSFt1YxuYaDPfT2kLLRIbgiXVl+bd6FrnoHMuiCxGE4+rl2DVKeCYpyctJrsGAHX9oTmkEvoXNX+1Wwq8VXSJVyyEUTEDBXRoljWVSuwYDldHcrzQ2ISSIvAb0gyGIeETZQrBtH4tU41nAkEqSE3iPazCwhVr6Q01gHVxMwTUYxkgKdbEqIw3CNRgeVMT7B79lbSTBe/ysazDQUewQj1Kb6JhcgwGTjityFsojAddgoAj2XXnksHzFewh7AUNejLreGXLXGuYVvb+vuQbDGJE7f0uUb0SuwbCagZxPLPP8kmswjBHGnScM/j9r12Cggwrd2BbKI4EFDHnkvBZfcQ2GnC1s1mK1Bh6kazCQjFp7d+LAwpnb612DgQwgmloslEcCrsFABXSquyvyiHO9v+IaDLTfI+nUSqSjU5/JnVA0MJ8z0ReCi9jblBq4BkObZpi02z1qzqsfmXubi0omA4amGoc548Sadu8aDNz8RrdWCzX1VbS8Y6o81lI912Cg8uhg4wodrxd4GNlnxTaJnaHNJRukyC2JMGfFOGmDyMZCrncGejfTIMtKTBoLhGt+trM+NFE+yvm5VIVj1lqm5xoMOe5YmCgWOk1rAUMnsU3zIddgqF4wPk3x+5qVazCM1QLP1xLlG41rMNBWjx4JC+WRgGsw7F9YBS/PI4flK97T3oa+um9BwJkl4HpnaAsGOqvR+mevZZU3utlPKmp5gIhwT5SFqNgmK2pbC/OMeCYTtaRVHs22LcSlHTtZGGfIg0f2BMO8XR8Tz9LWeoZ5yBK1jEvJVdRyVz3HdyvqIHaIjLlsolX9M3c0HGRBQtGR7eSGe6SNr5kk2y5Fh9rjDDOr2xlCj9PsjLjHkaFrqlev09mxuIGFnAQyluou84yNs82N8LEbYwwymDQL2V+7G2cYA4Pl8RP1cpXNnNUqGMhDpCN8n0u9aMHLlT5W4mIPekdyxeCc6QzdKY/R3tehC9dC8ukDhvJ9mwprCYYUQODlbcEwZwCkmHsKMDCODR2lBAP1kVRQ9yUuBKMj+0J5JJAKDFguewIG0tWPTjR2tn22nYXySCAVGBjtfoCBBhuxbuhLFDLPoub6Crfs4RQM6YUbx0Tswo7DRISrCRealgTQD7cGpnQSYIjVL1gdH9MS1TxmE3T4LWCYx+KvznIBwzzXPTjrKBiwAEJ3RLeJni1yXi8JhMCwlWOCa4GPiMxl6cSyXovcNFqUR378VL6v0hbAQCDqtKa3LH+fvAQOLD2QVPFQ2bTQPCXAtc4bHsiSTi9Ku7afpyxmP+uN+0irYOA2tu/MXizzE8BmsfRqPsN5tPCThuALTVsCp4oIOSWHl9NcBUP5/+9dbBs7F3dUkr3MlX0LTUMCp2huJdlO3PN5prs+/weqPCbTpusXZwAAAABJRU5ErkJggg==;" vertex="1" parent="1">
          <mxGeometry x="589" y="110" width="121" height="118.23" as="geometry" />
        </mxCell>
        <mxCell id="Llsa7Mo4gnioszqHE1k1-23" value="&lt;font style=&quot;font-size: 20px;&quot;&gt;患者&lt;/font&gt;" style="text;html=1;align=center;verticalAlign=middle;whiteSpace=wrap;rounded=0;" vertex="1" parent="1">
          <mxGeometry x="90" y="440" width="60" height="30" as="geometry" />
        </mxCell>
        <mxCell id="Llsa7Mo4gnioszqHE1k1-24" value="&lt;font style=&quot;font-size: 20px;&quot;&gt;医院&lt;/font&gt;" style="text;html=1;align=center;verticalAlign=middle;whiteSpace=wrap;rounded=0;" vertex="1" parent="1">
          <mxGeometry x="64" y="238" width="60" height="30" as="geometry" />
        </mxCell>
        <mxCell id="Llsa7Mo4gnioszqHE1k1-25" value="&lt;font style=&quot;font-size: 20px;&quot;&gt;医生&lt;/font&gt;" style="text;html=1;align=center;verticalAlign=middle;whiteSpace=wrap;rounded=0;" vertex="1" parent="1">
          <mxGeometry x="327" y="510" width="60" height="30" as="geometry" />
        </mxCell>
        <mxCell id="Llsa7Mo4gnioszqHE1k1-26" value="&lt;font style=&quot;font-size: 20px;&quot;&gt;管理&lt;/font&gt;" style="text;html=1;align=center;verticalAlign=middle;whiteSpace=wrap;rounded=0;" vertex="1" parent="1">
          <mxGeometry x="569" y="427" width="60" height="30" as="geometry" />
        </mxCell>
        <mxCell id="Llsa7Mo4gnioszqHE1k1-27" value="&lt;font style=&quot;font-size: 20px;&quot;&gt;政府&lt;/font&gt;" style="text;html=1;align=center;verticalAlign=middle;whiteSpace=wrap;rounded=0;" vertex="1" parent="1">
          <mxGeometry x="619.5" y="233.7" width="60" height="30" as="geometry" />
        </mxCell>
        <mxCell id="Llsa7Mo4gnioszqHE1k1-28" value="&lt;font style=&quot;font-size: 16px;&quot;&gt;基于区块链电子健康档案平台&lt;/font&gt;" style="text;html=1;align=center;verticalAlign=middle;whiteSpace=wrap;rounded=0;" vertex="1" parent="1">
          <mxGeometry x="252" y="238" width="210" height="30" as="geometry" />
        </mxCell>
      </root>
    </mxGraphModel>
  </diagram>
</mxfile>
